<svg width="16" height="16" viewBox="0 0 16 16" fill="none" xmlns="http://www.w3.org/2000/svg">
<g id="Bold / School / Case Round Minimalistic">
<path id="Union" fill-rule="evenodd" clip-rule="evenodd" d="M6.58533 2.83329C6.79148 2.25002 7.34777 1.83333 8.0001 1.83333C8.65243 1.83333 9.20872 2.25002 9.41488 2.83329C9.5069 3.09365 9.79256 3.23011 10.0529 3.13809C10.3133 3.04606 10.4497 2.7604 10.3577 2.50004C10.0148 1.52972 9.0894 0.833334 8.0001 0.833334C6.91081 0.833334 5.98544 1.52972 5.64249 2.50004C5.55046 2.7604 5.68692 3.04606 5.94728 3.13809C6.20764 3.23011 6.4933 3.09365 6.58533 2.83329ZM1.83163 5.39399C1.79608 5.37088 1.75868 5.35286 1.72029 5.33977C1.82239 5.12803 1.95144 4.94416 2.11454 4.78105C2.89559 4 4.15267 4 6.66683 4H9.3335C11.8477 4 13.1047 4 13.8858 4.78105C14.0489 4.94417 14.178 5.12806 14.2801 5.33983C14.2417 5.35292 14.2044 5.37091 14.1689 5.39399C12.7686 6.30417 11.8889 6.87346 11.1579 7.23864C11.1136 7.00778 10.9106 6.83333 10.6668 6.83333C10.3907 6.83333 10.1668 7.05719 10.1668 7.33333V7.63871C8.75386 8.06506 7.24645 8.06504 5.8335 7.63864V7.33333C5.8335 7.05719 5.60964 6.83333 5.3335 6.83333C5.08976 6.83333 4.88676 7.00773 4.84247 7.23854C4.11151 6.87335 3.23179 6.30409 1.83163 5.39399ZM1.3335 9.33333C1.3335 8.03303 1.3335 7.06897 1.44155 6.33312C2.95934 7.31969 3.93215 7.94888 4.8335 8.33637V8.66667C4.8335 8.94281 5.05735 9.16667 5.3335 9.16667C5.60598 9.16667 5.82755 8.9487 5.83338 8.67762C7.25356 9.05205 8.74676 9.05207 10.167 8.67768C10.1728 8.94874 10.3944 9.16667 10.6668 9.16667C10.943 9.16667 11.1668 8.94281 11.1668 8.66667V8.33646C12.0682 7.949 13.041 7.31983 14.5588 6.33326C14.6668 7.06909 14.6668 8.0331 14.6668 9.33333C14.6668 11.8475 14.6668 13.1046 13.8858 13.8856C13.1047 14.6667 11.8477 14.6667 9.3335 14.6667H6.66683C4.15267 14.6667 2.89559 14.6667 2.11454 13.8856C1.3335 13.1046 1.3335 11.8475 1.3335 9.33333Z" fill="#0689FF"/>
</g>
</svg>
