<svg width="16" height="16" viewBox="0 0 16 16" fill="none" xmlns="http://www.w3.org/2000/svg">
<g id="Bold / School / Diploma Verified">
<g id="Vector">
<path fill-rule="evenodd" clip-rule="evenodd" d="M1.3335 8V5.33333C1.3335 3.44772 1.3335 2.50491 1.91928 1.91912C2.50507 1.33333 3.44788 1.33333 5.3335 1.33333H10.6668C12.5524 1.33333 13.4953 1.33333 14.081 1.91912C14.6668 2.50491 14.6668 3.44772 14.6668 5.33333V8C14.6668 9.88562 14.6668 10.8284 14.081 11.4142C13.6501 11.8451 13.026 11.9591 11.9755 11.9892C11.973 11.4986 11.8026 11.0088 11.4642 10.6117C11.4451 10.5892 11.4335 10.5613 11.4312 10.5319C11.3476 9.48426 10.5157 8.65233 9.46801 8.56873C9.4386 8.56638 9.41068 8.55482 9.38822 8.53568C8.5883 7.85399 7.41178 7.85399 6.61186 8.53568C6.58941 8.55482 6.56148 8.56638 6.53207 8.56873C5.48442 8.65233 4.6525 9.48426 4.56889 10.5319C4.56655 10.5613 4.55498 10.5892 4.53584 10.6117C4.19746 11.0088 4.02705 11.4986 4.0246 11.9892C2.97423 11.959 2.35017 11.8451 1.91928 11.4142C1.3335 10.8284 1.3335 9.88562 1.3335 8ZM5.50016 4C5.50016 3.72386 5.72402 3.5 6.00016 3.5H10.0002C10.2763 3.5 10.5002 3.72386 10.5002 4C10.5002 4.27614 10.2763 4.5 10.0002 4.5H6.00016C5.72402 4.5 5.50016 4.27614 5.50016 4ZM4.66683 5.83333C4.39069 5.83333 4.16683 6.05719 4.16683 6.33333C4.16683 6.60948 4.39069 6.83333 4.66683 6.83333H11.3335C11.6096 6.83333 11.8335 6.60948 11.8335 6.33333C11.8335 6.05719 11.6096 5.83333 11.3335 5.83333H4.66683Z" fill="#784DFF"/>
<path fill-rule="evenodd" clip-rule="evenodd" d="M8.7396 9.29679C8.31344 8.93362 7.68664 8.93362 7.26048 9.29679C7.07786 9.45242 6.8508 9.54647 6.61162 9.56556C6.05348 9.6101 5.61026 10.0533 5.56572 10.6115C5.54664 10.8506 5.45258 11.0777 5.29696 11.2603C4.93378 11.6865 4.93378 12.3133 5.29696 12.7394C5.45258 12.9221 5.54664 13.1491 5.56572 13.3883C5.61026 13.9464 6.05348 14.3897 6.61162 14.4342C6.8508 14.4533 7.07786 14.5473 7.26048 14.703C7.68664 15.0661 8.31344 15.0661 8.7396 14.703C8.92222 14.5473 9.14928 14.4533 9.38846 14.4342C9.94661 14.3897 10.3898 13.9464 10.4344 13.3883C10.4534 13.1491 10.5475 12.9221 10.7031 12.7394C11.0663 12.3133 11.0663 11.6865 10.7031 11.2603C10.5475 11.0777 10.4534 10.8506 10.4344 10.6115C10.3898 10.0533 9.94661 9.6101 9.38846 9.56556C9.14928 9.54647 8.92222 9.45242 8.7396 9.29679ZM9.34132 11.6989C9.5432 11.5104 9.55411 11.1941 9.36569 10.9922C9.17728 10.7903 8.86088 10.7794 8.65901 10.9678L7.57159 11.9827L7.34132 11.7678C7.13945 11.5794 6.82305 11.5903 6.63464 11.7922C6.44622 11.9941 6.45713 12.3104 6.65901 12.4989L7.23043 13.0322C7.42254 13.2115 7.72065 13.2115 7.91275 13.0322L9.34132 11.6989Z" fill="#784DFF"/>
</g>
</g>
</svg>
