<svg width="25" height="24" viewBox="0 0 25 24" fill="none" xmlns="http://www.w3.org/2000/svg">
<g id="Outline / Time / Calendar">
<g id="Union">
<path d="M17.25 14C17.8023 14 18.25 13.5523 18.25 13C18.25 12.4477 17.8023 12 17.25 12C16.6977 12 16.25 12.4477 16.25 13C16.25 13.5523 16.6977 14 17.25 14Z" fill="#545454"/>
<path d="M17.25 18C17.8023 18 18.25 17.5523 18.25 17C18.25 16.4477 17.8023 16 17.25 16C16.6977 16 16.25 16.4477 16.25 17C16.25 17.5523 16.6977 18 17.25 18Z" fill="#545454"/>
<path d="M13.25 13C13.25 13.5523 12.8023 14 12.25 14C11.6977 14 11.25 13.5523 11.25 13C11.25 12.4477 11.6977 12 12.25 12C12.8023 12 13.25 12.4477 13.25 13Z" fill="#545454"/>
<path d="M13.25 17C13.25 17.5523 12.8023 18 12.25 18C11.6977 18 11.25 17.5523 11.25 17C11.25 16.4477 11.6977 16 12.25 16C12.8023 16 13.25 16.4477 13.25 17Z" fill="#545454"/>
<path d="M7.25 14C7.80229 14 8.25 13.5523 8.25 13C8.25 12.4477 7.80229 12 7.25 12C6.69772 12 6.25 12.4477 6.25 13C6.25 13.5523 6.69772 14 7.25 14Z" fill="#545454"/>
<path d="M7.25 18C7.80229 18 8.25 17.5523 8.25 17C8.25 16.4477 7.80229 16 7.25 16C6.69772 16 6.25 16.4477 6.25 17C6.25 17.5523 6.69772 18 7.25 18Z" fill="#545454"/>
<path fill-rule="evenodd" clip-rule="evenodd" d="M7.25 1.75C7.66421 1.75 8 2.08579 8 2.5V3.26272C8.662 3.24999 9.39133 3.24999 10.1935 3.25H14.3064C15.1086 3.24999 15.838 3.24999 16.5 3.26272V2.5C16.5 2.08579 16.8358 1.75 17.25 1.75C17.6642 1.75 18 2.08579 18 2.5V3.32709C18.2599 3.34691 18.5061 3.37182 18.739 3.40313C19.9114 3.56076 20.8604 3.89288 21.6088 4.64124C22.3571 5.38961 22.6892 6.33855 22.8469 7.51098C23 8.65018 23 10.1058 23 11.9435V14.0564C23 15.8941 23 17.3498 22.8469 18.489C22.6892 19.6614 22.3571 20.6104 21.6088 21.3588C20.8604 22.1071 19.9114 22.4392 18.739 22.5969C17.5998 22.75 16.1442 22.75 14.3065 22.75H10.1936C8.35585 22.75 6.90018 22.75 5.76098 22.5969C4.58856 22.4392 3.63961 22.1071 2.89124 21.3588C2.14288 20.6104 1.81076 19.6614 1.65314 18.489C1.49997 17.3498 1.49998 15.8942 1.5 14.0564V11.9436C1.49998 10.1058 1.49997 8.65019 1.65314 7.51098C1.81076 6.33855 2.14288 5.38961 2.89124 4.64124C3.63961 3.89288 4.58856 3.56076 5.76098 3.40313C5.9939 3.37182 6.24006 3.34691 6.5 3.32709V2.5C6.5 2.08579 6.83579 1.75 7.25 1.75ZM5.96085 4.88976C4.95476 5.02502 4.37511 5.27869 3.9519 5.7019C3.52869 6.12511 3.27502 6.70476 3.13976 7.71085C3.11685 7.88123 3.0977 8.06061 3.08168 8.25H21.4183C21.4023 8.06061 21.3831 7.88124 21.3602 7.71085C21.225 6.70476 20.9713 6.12511 20.5481 5.7019C20.1249 5.27869 19.5452 5.02502 18.5392 4.88976C17.5115 4.75159 16.1568 4.75 14.25 4.75H10.25C8.34318 4.75 6.98851 4.75159 5.96085 4.88976ZM3 12C3 11.146 3.00032 10.4027 3.01309 9.75H21.4869C21.4997 10.4027 21.5 11.146 21.5 12V14C21.5 15.9068 21.4984 17.2615 21.3602 18.2892C21.225 19.2952 20.9713 19.8749 20.5481 20.2981C20.1249 20.7213 19.5452 20.975 18.5392 21.1102C17.5115 21.2484 16.1568 21.25 14.25 21.25H10.25C8.34318 21.25 6.98851 21.2484 5.96085 21.1102C4.95476 20.975 4.37511 20.7213 3.9519 20.2981C3.52869 19.8749 3.27502 19.2952 3.13976 18.2892C3.00159 17.2615 3 15.9068 3 14V12Z" fill="#545454"/>
</g>
</g>
</svg>
