<svg width="25" height="24" viewBox="0 0 25 24" fill="none" xmlns="http://www.w3.org/2000/svg">
<g id="Bold Duotone / Time / Calendar">
<path id="Vector" d="M7.19028 2C7.60614 2 7.94326 2.32421 7.94326 2.72414V4.18487C8.61117 4.17241 9.35983 4.17241 10.2022 4.17241H14.2181C15.0604 4.17241 15.8091 4.17241 16.477 4.18487V2.72414C16.477 2.32421 16.8141 2 17.23 2C17.6458 2 17.983 2.32421 17.983 2.72414V4.24894C19.428 4.36022 20.3767 4.63333 21.0736 5.30359C21.7706 5.97385 22.0546 6.88616 22.1703 8.27586L22.25 9H3.17456H2.25V8.27586C2.36571 6.88616 2.6497 5.97385 3.34665 5.30359C4.04361 4.63333 4.99226 4.36022 6.4373 4.24894V2.72414C6.4373 2.32421 6.77442 2 7.19028 2Z" fill="#5D7F3C"/>
<path id="Vector_2" opacity="0.5" d="M22.25 14V12C22.25 11.1609 22.2468 9.66514 22.2339 8.99988H2.25966C2.24675 9.66514 2.25001 11.1609 2.25001 12V14C2.25001 17.7712 2.25001 19.6568 3.42159 20.8284C4.59316 22 6.47878 22 10.25 22H14.25C18.0213 22 19.9069 22 21.0784 20.8284C22.25 19.6568 22.25 17.7712 22.25 14Z" fill="#5D7F3C"/>
<g id="Vector_3">
<path d="M18.25 17C18.25 17.5523 17.8023 18 17.25 18C16.6977 18 16.25 17.5523 16.25 17C16.25 16.4477 16.6977 16 17.25 16C17.8023 16 18.25 16.4477 18.25 17Z" fill="#5D7F3C"/>
<path d="M18.25 13C18.25 13.5523 17.8023 14 17.25 14C16.6977 14 16.25 13.5523 16.25 13C16.25 12.4477 16.6977 12 17.25 12C17.8023 12 18.25 12.4477 18.25 13Z" fill="#5D7F3C"/>
</g>
<g id="Vector_4">
<path d="M13.25 17C13.25 17.5523 12.8023 18 12.25 18C11.6977 18 11.25 17.5523 11.25 17C11.25 16.4477 11.6977 16 12.25 16C12.8023 16 13.25 16.4477 13.25 17Z" fill="#5D7F3C"/>
<path d="M13.25 13C13.25 13.5523 12.8023 14 12.25 14C11.6977 14 11.25 13.5523 11.25 13C11.25 12.4477 11.6977 12 12.25 12C12.8023 12 13.25 12.4477 13.25 13Z" fill="#5D7F3C"/>
</g>
<g id="Vector_5">
<path d="M8.25 17C8.25 17.5523 7.80228 18 7.25 18C6.69772 18 6.25 17.5523 6.25 17C6.25 16.4477 6.69772 16 7.25 16C7.80228 16 8.25 16.4477 8.25 17Z" fill="#5D7F3C"/>
<path d="M8.25 13C8.25 13.5523 7.80228 14 7.25 14C6.69772 14 6.25 13.5523 6.25 13C6.25 12.4477 6.69772 12 7.25 12C7.80228 12 8.25 12.4477 8.25 13Z" fill="#5D7F3C"/>
</g>
</g>
</svg>
