<svg width="25" height="24" viewBox="0 0 25 24" fill="none" xmlns="http://www.w3.org/2000/svg">
<g id="Outline / Business, Statistic / Chat Square 2">
<g id="Vector">
<path d="M8 15C8 14.5858 7.66421 14.25 7.25 14.25C6.83579 14.25 6.5 14.5858 6.5 15V18C6.5 18.4142 6.83579 18.75 7.25 18.75C7.66421 18.75 8 18.4142 8 18V15Z" fill="#545454"/>
<path d="M12.25 11.25C12.6642 11.25 13 11.5858 13 12V18C13 18.4142 12.6642 18.75 12.25 18.75C11.8358 18.75 11.5 18.4142 11.5 18V12C11.5 11.5858 11.8358 11.25 12.25 11.25Z" fill="#545454"/>
<path d="M18 9C18 8.58579 17.6642 8.25 17.25 8.25C16.8358 8.25 16.5 8.58579 16.5 9V18C16.5 18.4142 16.8358 18.75 17.25 18.75C17.6642 18.75 18 18.4142 18 18V9Z" fill="#545454"/>
<path fill-rule="evenodd" clip-rule="evenodd" d="M12.1926 1.25C9.88423 1.24999 8.07519 1.24998 6.66371 1.43975C5.21897 1.63399 4.07895 2.03933 3.18414 2.93414C2.28933 3.82895 1.88399 4.96897 1.68975 6.41371C1.49998 7.82519 1.49999 9.63423 1.5 11.9426V12.0574C1.49999 14.3658 1.49998 16.1748 1.68975 17.5863C1.88399 19.031 2.28933 20.1711 3.18414 21.0659C4.07895 21.9607 5.21897 22.366 6.66371 22.5603C8.07519 22.75 9.88423 22.75 12.1926 22.75H12.3074C14.6158 22.75 16.4248 22.75 17.8363 22.5603C19.281 22.366 20.4211 21.9607 21.3159 21.0659C22.2107 20.1711 22.616 19.031 22.8103 17.5863C23 16.1748 23 14.3658 23 12.0574V11.9426C23 9.63423 23 7.82519 22.8103 6.41371C22.616 4.96897 22.2107 3.82895 21.3159 2.93414C20.4211 2.03933 19.281 1.63399 17.8363 1.43975C16.4248 1.24998 14.6158 1.24999 12.3074 1.25H12.1926ZM4.2448 3.9948C4.81445 3.42514 5.58517 3.09825 6.86358 2.92637C8.16356 2.75159 9.87178 2.75 12.25 2.75C14.6282 2.75 16.3364 2.75159 17.6364 2.92637C18.9148 3.09825 19.6855 3.42514 20.2552 3.9948C20.8249 4.56445 21.1518 5.33517 21.3236 6.61358C21.4984 7.91356 21.5 9.62178 21.5 12C21.5 14.3782 21.4984 16.0864 21.3236 17.3864C21.1518 18.6648 20.8249 19.4355 20.2552 20.0052C19.6855 20.5749 18.9148 20.9018 17.6364 21.0736C16.3364 21.2484 14.6282 21.25 12.25 21.25C9.87178 21.25 8.16356 21.2484 6.86358 21.0736C5.58517 20.9018 4.81445 20.5749 4.2448 20.0052C3.67514 19.4355 3.34825 18.6648 3.17637 17.3864C3.00159 16.0864 3 14.3782 3 12C3 9.62178 3.00159 7.91356 3.17637 6.61358C3.34825 5.33517 3.67514 4.56445 4.2448 3.9948Z" fill="#545454"/>
</g>
</g>
</svg>
