<svg width="25" height="24" viewBox="0 0 25 24" fill="none" xmlns="http://www.w3.org/2000/svg">
<g id="Bold Duotone / Business, Statistic / Chart Square">
<path id="Vector" opacity="0.5" d="M12.25 22C7.53595 22 5.17893 22 3.71447 20.5355C2.25 19.0711 2.25 16.714 2.25 12C2.25 7.28595 2.25 4.92893 3.71447 3.46447C5.17893 2 7.53595 2 12.25 2C16.964 2 19.3211 2 20.7855 3.46447C22.25 4.92893 22.25 7.28595 22.25 12C22.25 16.714 22.25 19.0711 20.7855 20.5355C19.3211 22 16.964 22 12.25 22Z" fill="#5D7F3C"/>
<g id="Vector_2">
<path d="M12.25 5.25C12.6642 5.25 13 5.58579 13 6V18C13 18.4142 12.6642 18.75 12.25 18.75C11.8358 18.75 11.5 18.4142 11.5 18V6C11.5 5.58579 11.8358 5.25 12.25 5.25Z" fill="#5D7F3C"/>
<path d="M7.25 8.25C7.66421 8.25 8 8.58579 8 9V18C8 18.4142 7.66421 18.75 7.25 18.75C6.83579 18.75 6.5 18.4142 6.5 18V9C6.5 8.58579 6.83579 8.25 7.25 8.25Z" fill="#5D7F3C"/>
<path d="M17.25 12.25C17.6642 12.25 18 12.5858 18 13V18C18 18.4142 17.6642 18.75 17.25 18.75C16.8358 18.75 16.5 18.4142 16.5 18V13C16.5 12.5858 16.8358 12.25 17.25 12.25Z" fill="#5D7F3C"/>
</g>
</g>
</svg>
