<svg width="21" height="19" viewBox="0 0 21 19" fill="none" xmlns="http://www.w3.org/2000/svg">
<g id="Vector">
<path d="M0.912081 6.49969C0.75 7.60346 0.75 9.04954 0.75 11C0.75 14.7712 0.75 16.6569 1.92157 17.8284C3.09315 19 4.97876 19 8.75 19H12.75C16.5212 19 18.4069 19 19.5784 17.8284C20.75 16.6569 20.75 14.7712 20.75 11C20.75 9.04966 20.75 7.60364 20.5879 6.49989C18.3113 7.97971 16.8521 8.92346 15.5001 9.50466V10.0001C15.5001 10.4143 15.1643 10.7501 14.7501 10.7501C14.3414 10.7501 14.009 10.4231 14.0003 10.0165C11.87 10.5781 9.63019 10.5781 7.49991 10.0165C7.49121 10.4231 7.15883 10.7501 6.75009 10.7501C6.33587 10.7501 6.00009 10.4143 6.00009 10.0001V9.50459C4.64804 8.92336 3.18881 7.97957 0.912081 6.49969Z" fill="#8BBF5A"/>
<path fill-rule="evenodd" clip-rule="evenodd" d="M9.33137 0.250004L9.31095 0.250002C9.19744 0.249985 9.10909 0.249971 9.0255 0.255034C7.96507 0.319256 7.03647 0.988548 6.64021 1.97426C6.6088 2.05239 6.55711 2.20756 6.52024 2.31825L6.51636 2.32989C6.41326 2.60981 6.22709 2.85224 6.01157 3.02534C5.78409 3.0327 5.56683 3.0422 5.35915 3.05445C3.71519 3.15144 2.67193 3.42122 1.92157 4.17158C1.67691 4.41624 1.48334 4.69204 1.3302 5.00965C1.38777 5.0293 1.44387 5.05632 1.49721 5.09099C3.5975 6.45617 4.91709 7.31008 6.01356 7.85786C6.08001 7.51166 6.3845 7.25009 6.75009 7.25009C7.1643 7.25009 7.50009 7.58588 7.50009 8.00009V8.458C9.61952 9.09757 11.8806 9.09759 14.0001 8.45805V8.00009C14.0001 7.58588 14.3359 7.25009 14.7501 7.25009C15.1157 7.25009 15.4202 7.5117 15.4866 7.85794C16.5831 7.31015 17.9027 6.45623 20.0031 5.09099C20.0564 5.05638 20.1124 5.02939 20.1699 5.00975C20.0167 4.6921 19.8231 4.41626 19.5784 4.17158C18.8281 3.42122 17.7848 3.15144 16.1409 3.05445C15.9437 3.04282 15.7379 3.03367 15.523 3.02648C15.5094 3.01545 15.4958 3.00406 15.4822 2.99231C15.2415 2.78435 15.0533 2.51011 14.9584 2.25288L14.9553 2.24344C14.9194 2.13576 14.8915 2.05195 14.8602 1.97426C14.464 0.988549 13.5354 0.319256 12.475 0.255034C12.3914 0.249971 12.303 0.249985 12.1895 0.250002L9.33137 0.250004ZM13.5676 2.81569L13.5631 2.80495L13.5582 2.79286L13.5537 2.78091L13.55 2.77097L13.5482 2.76596L13.544 2.75373L13.5402 2.74244L13.5381 2.73617L13.5353 2.72783L13.5331 2.72079L13.5313 2.7151C13.492 2.59708 13.4799 2.56204 13.4685 2.53375C13.2884 2.08571 12.8663 1.78148 12.3843 1.75229C12.352 1.75034 12.3125 1.75 12.1691 1.75H9.33137C9.18799 1.75 9.14844 1.75034 9.11618 1.75229C8.63424 1.78148 8.21221 2.08561 8.03204 2.53354L8.0294 2.54052L8.02143 2.56245C8.0148 2.58104 8.00672 2.60429 7.9974 2.63156C7.98088 2.67994 7.96232 2.73546 7.94351 2.79186L7.94168 2.79777L7.93945 2.80481L7.93671 2.81314L7.93462 2.81941L7.93079 2.83071L7.92655 2.84295L7.92477 2.84796L7.92113 2.85791L7.91655 2.86987L7.91168 2.88199L7.90751 2.8919L7.90686 2.89336C7.89293 2.92921 7.87818 2.96498 7.86263 3.00064C8.14625 3 8.44183 3 8.75 3H12.75C13.0615 3 13.3601 3 13.6465 3.00066C13.618 2.93956 13.5917 2.87784 13.5676 2.81569Z" fill="#8BBF5A"/>
</g>
</svg>
