<svg width="22" height="21" viewBox="0 0 22 21" fill="none" xmlns="http://www.w3.org/2000/svg">
<path id="Vector" fill-rule="evenodd" clip-rule="evenodd" d="M9.31095 0.250002H12.1895C12.303 0.249985 12.3914 0.249971 12.475 0.255034C13.5354 0.319256 14.464 0.988549 14.8602 1.97426C14.8915 2.05195 14.9194 2.13578 14.9553 2.24347L14.9874 2.33981C15.0063 2.39649 15.0117 2.41254 15.0163 2.42518C15.1935 2.91498 15.6299 3.25578 16.0853 3.30011C16.1187 3.30192 16.152 3.3038 16.185 3.30575C17.8615 3.40466 19.1513 3.68377 20.1088 4.64125C20.8571 5.38961 21.1892 6.33856 21.3469 7.51098C21.5 8.6502 21.5 10.1058 21.5 11.9436V12.0564C21.5 13.8942 21.5 15.3498 21.3469 16.489C21.1892 17.6614 20.8571 18.6104 20.1088 19.3588C19.3604 20.1071 18.4114 20.4392 17.239 20.5969C16.0998 20.75 14.6442 20.75 12.8064 20.75H8.69359C6.85583 20.75 5.40019 20.75 4.26098 20.5969C3.08856 20.4392 2.13961 20.1071 1.39124 19.3588C0.64288 18.6104 0.310763 17.6614 0.153135 16.489C-2.81632e-05 15.3498 -1.55332e-05 13.8942 3.21616e-07 12.0564V11.9436C-1.55332e-05 10.1058 -2.81632e-05 8.65019 0.153135 7.51098C0.310763 6.33856 0.64288 5.38961 1.39124 4.64125C2.34872 3.68377 3.63854 3.40466 5.31498 3.30575C5.34801 3.3038 5.38127 3.30192 5.41476 3.30011C5.87033 3.25576 6.30706 2.91482 6.48417 2.42521C6.48877 2.41248 6.49407 2.39678 6.51305 2.33981L6.54518 2.24343C6.58105 2.13577 6.60898 2.05194 6.64021 1.97426C7.03647 0.988549 7.96507 0.319256 9.0255 0.255034C9.10909 0.249971 9.19744 0.249985 9.31095 0.250002ZM5.39194 4.80382C5.43636 4.80246 5.4805 4.79997 5.52435 4.79639C6.39675 4.75027 7.44718 4.75 8.75 4.75H12.75C14.0528 4.75 15.1033 4.75027 15.9756 4.79639C16.0195 4.79997 16.0636 4.80246 16.1081 4.80382C17.7119 4.89946 18.5061 5.15995 19.0481 5.70191C19.2405 5.89431 19.3979 6.11905 19.525 6.40149C17.6979 7.58765 16.4974 8.35284 15.4865 8.85785C15.4201 8.51161 15.1156 8.25 14.75 8.25C14.3358 8.25 14 8.58579 14 9V9.45796C11.8806 10.0975 9.61944 10.0975 7.5 9.45791V9C7.5 8.58579 7.16421 8.25 6.75 8.25C6.38442 8.25 6.07993 8.51157 6.01347 8.85777C5.00261 8.35276 3.8021 7.58756 1.97505 6.40141C2.10217 6.119 2.25952 5.89429 2.4519 5.70191C2.99386 5.15995 3.78808 4.89946 5.39194 4.80382ZM1.61034 7.95302C1.50136 8.94942 1.5 10.2393 1.5 12C1.5 13.9068 1.50159 15.2615 1.63976 16.2892C1.77502 17.2952 2.02869 17.8749 2.4519 18.2981C2.87511 18.7213 3.45476 18.975 4.46085 19.1102C5.48851 19.2484 6.84318 19.25 8.75 19.25H12.75C14.6568 19.25 16.0115 19.2484 17.0392 19.1102C18.0452 18.975 18.6249 18.7213 19.0481 18.2981C19.4713 17.8749 19.725 17.2952 19.8602 16.2892C19.9984 15.2615 20 13.9068 20 12C20 10.2394 19.9986 8.94951 19.8897 7.95312C18.0027 9.17589 16.7085 9.98507 15.5 10.5046V11C15.5 11.4142 15.1642 11.75 14.75 11.75C14.3413 11.75 14.0089 11.423 14.0002 11.0164C11.8699 11.578 9.6301 11.578 7.49982 11.0164C7.49112 11.423 7.15875 11.75 6.75 11.75C6.33579 11.75 6 11.4142 6 11V10.5045C4.7915 9.98498 3.49736 9.17579 1.61034 7.95302ZM13.742 3.25089C13.4312 3.25 13.1075 3.25 12.7706 3.25H8.72944C8.39269 3.25 8.06915 3.25 7.75843 3.25089C7.81013 3.14863 7.85571 3.04327 7.89472 2.93544C7.90664 2.90248 7.91834 2.86739 7.93336 2.8223L7.93608 2.81415L7.96174 2.73718C8.00708 2.60117 8.0199 2.56374 8.03196 2.53375C8.21208 2.08571 8.63416 1.78148 9.11618 1.75229C9.14844 1.75034 9.18799 1.75 9.33137 1.75H12.1691C12.3125 1.75 12.352 1.75034 12.3843 1.75229C12.8663 1.78148 13.2884 2.08571 13.4685 2.53375C13.4806 2.56374 13.4934 2.60115 13.5387 2.73717L13.567 2.82212M13.6057 2.93547C13.6447 3.04328 13.6903 3.14863 13.742 3.25089L13.6057 2.93547Z" fill="#545454"/>
</svg>
