<svg width="25" height="24" viewBox="0 0 25 24" fill="none" xmlns="http://www.w3.org/2000/svg">
<g id="Bold Duotone / Notes / Clipboard">
<path id="Vector" opacity="0.5" d="M21.5 15.9983V9.99826C21.5 7.16983 21.5 5.75562 20.6213 4.87694C19.8529 4.10856 18.675 4.01211 16.5 4H8.5C6.32497 4.01211 5.14706 4.10856 4.37868 4.87694C3.5 5.75562 3.5 7.16983 3.5 9.99826V15.9983C3.5 18.8267 3.5 20.2409 4.37868 21.1196C5.25736 21.9983 6.67157 21.9983 9.5 21.9983H15.5C18.3284 21.9983 19.7426 21.9983 20.6213 21.1196C21.5 20.2409 21.5 18.8267 21.5 15.9983Z" fill="#5D7F3C"/>
<path id="Vector_2" d="M8.5 3.5C8.5 2.67157 9.17157 2 10 2H15C15.8284 2 16.5 2.67157 16.5 3.5V4.5C16.5 5.32843 15.8284 6 15 6H10C9.17157 6 8.5 5.32843 8.5 4.5V3.5Z" fill="#5D7F3C"/>
<path id="Vector_3" fill-rule="evenodd" clip-rule="evenodd" d="M6.75 10.5C6.75 10.0858 7.08579 9.75 7.5 9.75H17.5C17.9142 9.75 18.25 10.0858 18.25 10.5C18.25 10.9142 17.9142 11.25 17.5 11.25H7.5C7.08579 11.25 6.75 10.9142 6.75 10.5ZM7.75 14C7.75 13.5858 8.08579 13.25 8.5 13.25H16.5C16.9142 13.25 17.25 13.5858 17.25 14C17.25 14.4142 16.9142 14.75 16.5 14.75H8.5C8.08579 14.75 7.75 14.4142 7.75 14ZM8.75 17.5C8.75 17.0858 9.08579 16.75 9.5 16.75H15.5C15.9142 16.75 16.25 17.0858 16.25 17.5C16.25 17.9142 15.9142 18.25 15.5 18.25H9.5C9.08579 18.25 8.75 17.9142 8.75 17.5Z" fill="#5D7F3C"/>
</g>
</svg>
