<svg width="20" height="18" viewBox="0 0 20 18" fill="none" xmlns="http://www.w3.org/2000/svg">
<g id="Camera">
<path id="Stroke 1" fill-rule="evenodd" clip-rule="evenodd" d="M5.19406 1.8317C5.59601 1.10118 6.03328 0.612829 6.68213 0.354573C7.87114 -0.118207 12.1295 -0.118207 13.3176 0.354668C13.9661 0.612784 14.4035 1.10105 14.8058 1.83142L15.258 2.69857C15.2684 2.71576 15.2779 2.73086 15.2864 2.74387L15.3248 2.79637C15.5308 3.02088 15.8757 3.1565 16.1032 3.1565C18.2553 3.1565 20.0002 4.90109 20.0002 7.0525V12.8475C20.0002 15.5917 17.7745 17.8175 15.0302 17.8175H4.97024C2.22535 17.8175 0.000244141 15.592 0.000244141 12.8475V7.0525C0.000244141 4.90109 1.74522 3.1565 3.89724 3.1565C4.12402 3.1565 4.46932 3.02068 4.67568 2.79637C4.67981 2.79188 4.68519 2.78519 4.69169 2.77634L4.74312 2.69745L5.19406 1.8317ZM13.4919 2.55508C13.2419 2.10124 13.016 1.84909 12.7629 1.74833L12.6436 1.70867C11.6144 1.41778 8.03465 1.431 7.2366 1.74833C6.98358 1.84904 6.75793 2.10105 6.50826 2.5548L6.1234 3.2989L6.02868 3.47033C5.9496 3.60186 5.87051 3.71289 5.78019 3.81129C5.27373 4.36179 4.52449 4.6565 3.89724 4.6565L3.73315 4.66203C2.48599 4.74636 1.50024 5.78472 1.50024 7.0525V12.8475C1.50024 14.7637 3.05383 16.3175 4.97024 16.3175H15.0302C16.946 16.3175 18.5002 14.7633 18.5002 12.8475V7.0525C18.5002 5.7296 17.4269 4.6565 16.1032 4.6565L15.9291 4.64922C15.3406 4.60079 14.6795 4.31166 14.2197 3.81063C14.1306 3.71353 14.0519 3.60329 13.9733 3.47287C13.962 3.45416 13.948 3.42953 13.9319 3.40039L13.8158 3.18264L13.4919 2.55508Z" fill="#8A8A8A"/>
<path id="Stroke 13" d="M15.5046 5.5C16.0569 5.5 16.5046 5.94772 16.5046 6.5C16.5046 7.01284 16.1186 7.43551 15.6212 7.49327L15.5046 7.5C14.9433 7.5 14.4956 7.05228 14.4956 6.5C14.4956 5.98716 14.8816 5.56449 15.379 5.50673L15.5046 5.5Z" fill="#8A8A8A"/>
<path id="Stroke 5" fill-rule="evenodd" clip-rule="evenodd" d="M6.07092 10.1282C6.07092 7.95799 7.82971 6.1992 9.99992 6.1992C12.1701 6.1992 13.9289 7.95799 13.9289 10.1282C13.9289 12.2984 12.1701 14.0572 9.99992 14.0572C7.82971 14.0572 6.07092 12.2984 6.07092 10.1282ZM12.4289 10.1282C12.4289 8.78641 11.3417 7.6992 9.99992 7.6992C8.65814 7.6992 7.57092 8.78641 7.57092 10.1282C7.57092 11.47 8.65814 12.5572 9.99992 12.5572C11.3417 12.5572 12.4289 11.47 12.4289 10.1282Z" fill="#8A8A8A"/>
</g>
</svg>
