<svg width="25" height="24" viewBox="0 0 25 24" fill="none" xmlns="http://www.w3.org/2000/svg">
<g id="upload-cloud 3" clip-path="url(#clip0_137_7091)">
<path id="Vector" d="M16.499 16L12.499 12L8.49902 16" stroke="#9E9E9E" stroke-width="2" stroke-linecap="round" stroke-linejoin="round"/>
<path id="Vector_2" d="M12.5 12V21" stroke="#9E9E9E" stroke-width="2" stroke-linecap="round" stroke-linejoin="round"/>
<path id="Vector_3" d="M20.889 18.3895C21.8643 17.8578 22.6348 17.0164 23.0789 15.9981C23.5229 14.9799 23.6152 13.8427 23.3412 12.7662C23.0672 11.6896 22.4425 10.735 21.5657 10.0529C20.6888 9.37088 19.6098 9.00023 18.499 8.99949H17.239C16.9363 7.82874 16.3721 6.74183 15.5889 5.82049C14.8057 4.89915 13.8238 4.16735 12.7171 3.6801C11.6103 3.19286 10.4075 2.96285 9.1991 3.00738C7.99067 3.0519 6.80805 3.3698 5.74016 3.93716C4.67227 4.50453 3.7469 5.3066 3.03361 6.28308C2.32032 7.25956 1.83767 8.38503 1.62196 9.57489C1.40625 10.7647 1.46309 11.988 1.7882 13.1528C2.11331 14.3175 2.69823 15.3934 3.49898 16.2995" stroke="#9E9E9E" stroke-width="2" stroke-linecap="round" stroke-linejoin="round"/>
<path id="Vector_4" d="M16.499 16L12.499 12L8.49902 16" stroke="#9E9E9E" stroke-width="2" stroke-linecap="round" stroke-linejoin="round"/>
</g>
<defs>
<clipPath id="clip0_137_7091">
<rect width="24" height="24" fill="white" transform="translate(0.5)"/>
</clipPath>
</defs>
</svg>
