<svg width="72" height="72" viewBox="0 0 72 72" fill="none" xmlns="http://www.w3.org/2000/svg">
<circle cx="36" cy="36" r="36" fill="#FCDDEC"/>
<path fill-rule="evenodd" clip-rule="evenodd" d="M41.7624 45.9472H27.7025C26.8963 45.9472 26.2419 45.2752 26.2419 44.4472C26.2419 43.6192 26.8963 42.9472 27.7025 42.9472H41.7624C42.5686 42.9472 43.2229 43.6192 43.2229 44.4472C43.2229 45.2752 42.5686 45.9472 41.7624 45.9472Z" fill="#F178B6"/>
<path fill-rule="evenodd" clip-rule="evenodd" d="M41.7624 37.5742H27.7025C26.8963 37.5742 26.2419 36.9022 26.2419 36.0742C26.2419 35.2462 26.8963 34.5742 27.7025 34.5742H41.7624C42.5686 34.5742 43.2229 35.2462 43.2229 36.0742C43.2229 36.9022 42.5686 37.5742 41.7624 37.5742Z" fill="#F178B6"/>
<path fill-rule="evenodd" clip-rule="evenodd" d="M33.067 29.2207H27.702C26.8958 29.2207 26.2415 28.5487 26.2415 27.7207C26.2415 26.8927 26.8958 26.2207 27.702 26.2207H33.067C33.8732 26.2207 34.5275 26.8927 34.5275 27.7207C34.5275 28.5487 33.8732 29.2207 33.067 29.2207Z" fill="#F178B6"/>
<mask id="mask0_118_2217" style="mask-type:luminance" maskUnits="userSpaceOnUse" x="17" y="16" width="36" height="40">
<path fill-rule="evenodd" clip-rule="evenodd" d="M17 16H52.3734V55.8196H17V16Z" fill="white"/>
</mask>
<g mask="url(#mask0_118_2217)">
<path fill-rule="evenodd" clip-rule="evenodd" d="M42.1384 19L27.165 19.008C22.6316 19.036 19.9208 21.916 19.9208 26.714V45.106C19.9208 49.936 22.6569 52.82 27.2351 52.82L42.2085 52.814C46.742 52.786 49.4527 49.902 49.4527 45.106V26.714C49.4527 21.884 46.7186 19 42.1384 19ZM27.2371 55.82C21.1146 55.82 16.9998 51.514 16.9998 45.106V26.714C16.9998 20.248 20.986 16.046 27.1553 16.008L42.1365 16H42.1384C48.2609 16 52.3738 20.306 52.3738 26.714V45.106C52.3738 51.57 48.3875 55.774 42.2183 55.814L27.2371 55.82Z" fill="#F178B6"/>
</g>
</svg>
