<svg width="72" height="72" viewBox="0 0 72 72" fill="none" xmlns="http://www.w3.org/2000/svg">
<circle cx="36" cy="36" r="36" fill="#FFF2F1"/>
<path fill-rule="evenodd" clip-rule="evenodd" d="M17.8321 47.3214H42.1319C42.4022 47.4282 42.5797 47.6893 42.5797 47.9799C42.5797 48.2705 42.4022 48.5316 42.1319 48.6384H17.8321C16.268 48.6384 15 47.3704 15 45.8062V24.5652C15 23.001 16.268 21.733 17.8321 21.733H20.0129V19.878C20.0129 19.4869 20.3299 19.1699 20.7209 19.1699C21.112 19.1699 21.429 19.4869 21.429 19.878V21.733H28.5093V19.878C28.5093 19.4869 28.8263 19.1699 29.2174 19.1699C29.6084 19.1699 29.9254 19.4869 29.9254 19.878V21.733H37.0057V19.878C37.0057 19.4869 37.3227 19.1699 37.7138 19.1699C38.1048 19.1699 38.4218 19.4869 38.4218 19.878V21.733H45.5022V19.708C45.5022 19.317 45.8192 19 46.2102 19C46.6012 19 46.9182 19.317 46.9182 19.708V21.8321H49.3114C50.8755 21.8321 52.1435 23.1001 52.1435 24.6643V39.3773C52.1435 39.7683 51.8265 40.0853 51.4355 40.0853C51.0445 40.0853 50.7275 39.7683 50.7275 39.3773V29.394H16.4161V45.9053C16.4161 46.6874 17.0501 47.3214 17.8321 47.3214ZM20.1687 23.1491H17.8322C17.4315 23.1361 17.044 23.2935 16.766 23.5823C16.4879 23.8712 16.3454 24.2644 16.3736 24.6643V27.9354H50.8266V24.5652C50.8266 23.7831 50.1926 23.1491 49.4106 23.1491H47.074V24.8342C47.074 25.2252 46.7571 25.5422 46.366 25.5422C45.975 25.5422 45.658 25.2252 45.658 24.8342V23.1491H38.5776V25.0041C38.5776 25.3952 38.2606 25.7122 37.8696 25.7122C37.4786 25.7122 37.1616 25.3952 37.1616 25.0041V23.1491H30.0812V25.0041C30.0812 25.3952 29.7642 25.7122 29.3732 25.7122C28.9821 25.7122 28.6651 25.3952 28.6651 25.0041V23.1491H21.5848V25.0041C21.5848 25.3952 21.2678 25.7122 20.8767 25.7122C20.4857 25.7122 20.1687 25.3952 20.1687 25.0041V23.1491Z" fill="#FF2C20"/>
<rect x="25.8755" y="31.7871" width="2.71886" height="2.71886" fill="#FF2C20"/>
<rect x="32.2478" y="31.7871" width="2.71886" height="2.71886" fill="#FF2C20"/>
<rect x="38.6201" y="31.773" width="2.71886" height="2.71886" fill="#FF2C20"/>
<rect x="19.5032" y="36.9841" width="2.71886" height="2.71886" fill="#FF2C20"/>
<rect x="25.8755" y="36.9841" width="2.71886" height="2.71886" fill="#FF2C20"/>
<rect x="32.2478" y="36.9841" width="2.71886" height="2.71886" fill="#FF2C20"/>
<rect x="19.5032" y="42.2377" width="2.71886" height="2.71886" fill="#FF2C20"/>
<rect x="25.8755" y="42.2377" width="2.71886" height="2.71886" fill="#FF2C20"/>
<rect x="32.2478" y="42.2094" width="2.71886" height="2.71886" fill="#FF2C20"/>
<rect x="38.6201" y="42.2094" width="2.71886" height="2.71886" fill="#FF2C20"/>
<rect x="38.6201" y="36.9699" width="2.71886" height="2.71886" fill="#FF2C20"/>
<rect x="44.8792" y="31.7446" width="2.71886" height="2.71886" fill="#FF2C20"/>
<rect x="44.8792" y="36.9416" width="2.71886" height="2.71886" fill="#FF2C20"/>
<path fill-rule="evenodd" clip-rule="evenodd" d="M44.6244 44.8089C45.5442 42.5958 47.7077 41.1558 50.1044 41.1615C53.3624 41.1693 56.0016 43.8085 56.0094 47.0665C56.0151 49.4632 54.5751 51.6267 52.3619 52.5465C50.1488 53.4664 47.5995 52.9608 45.9048 51.2661C44.2101 49.5714 43.7045 47.0221 44.6244 44.8089ZM45.934 48.7996C46.6355 50.4818 48.2818 51.5753 50.1044 51.5696C52.5859 51.5618 54.5934 49.548 54.5934 47.0665C54.5934 45.2439 53.4947 43.601 51.8103 42.9048C50.1258 42.2087 48.1879 42.5965 46.9011 43.8874C45.6143 45.1782 45.2326 47.1174 45.934 48.7996Z" fill="#FF2C20"/>
<path fill-rule="evenodd" clip-rule="evenodd" d="M50.2497 45.1665V47.5608V45.1665Z" fill="#FF2C20"/>
<path d="M50.2497 45.1665V47.5608" stroke="#FF2C20" stroke-width="2" stroke-linecap="round" stroke-linejoin="round"/>
<path fill-rule="evenodd" clip-rule="evenodd" d="M50.2499 49.9552H50.2559H50.2499Z" fill="#FF2C20"/>
<path d="M50.2499 49.9552H50.2559" stroke="#FF2C20" stroke-width="2" stroke-linecap="round" stroke-linejoin="round"/>
</svg>
