<svg width="73" height="72" viewBox="0 0 73 72" fill="none" xmlns="http://www.w3.org/2000/svg">
<circle cx="36.5" cy="36" r="36" fill="#FFFAEC"/>
<path d="M56.0547 40.0718L56.0551 39.5718H56.0547V40.0718ZM56.3797 40.1956L56.7247 39.8337L56.7205 39.8298L56.3797 40.1956ZM53.3722 40.0718L52.88 40.16L52.9538 40.5718H53.3722V40.0718ZM50.5742 34.2345L50.2369 33.8654L49.8 34.2646L50.2665 34.6287L50.5742 34.2345ZM50.8635 28.8783L50.4922 29.2132L50.8635 28.8783ZM44.9192 27.9642L44.6789 27.5257V27.5257L44.9192 27.9642ZM43.1674 33.0955L42.9441 33.5429L44.3111 34.225L43.6119 32.8667L43.1674 33.0955ZM38.6701 30.8514L38.8933 30.404L38.8854 30.4001L38.8774 30.3964L38.6701 30.8514ZM36.1165 31.5347L35.694 31.2674L35.694 31.2674L36.1165 31.5347ZM36.7861 33.8292L36.5465 34.268L36.5545 34.2724L36.5627 34.2765L36.7861 33.8292ZM43.0281 36.9473L43.4878 37.1439L43.6731 36.7106L43.2515 36.5L43.0281 36.9473ZM42.18 40.0718V40.5718H42.6018L42.6729 40.1561L42.18 40.0718ZM39.0508 40.0718V39.5718L39.0491 39.5718L39.0508 40.0718ZM38.7273 40.1954L39.0678 40.5615L39.0678 40.5615L38.7273 40.1954ZM38.603 40.4882L38.1036 40.5114L38.1036 40.5128L38.603 40.4882ZM39.3056 54.7609L38.8062 54.7855L38.8065 54.79L39.3056 54.7609ZM39.774 55.1424L39.7898 55.6422L39.7941 55.642L39.774 55.1424ZM40.2022 54.727L40.7016 54.7031L40.7016 54.7024L40.2022 54.727ZM39.5202 40.8706V40.3706H38.995L39.0208 40.8952L39.5202 40.8706ZM55.5863 40.8706L56.0857 40.8952L56.1115 40.3706H55.5863V40.8706ZM54.9043 54.727L54.4049 54.7024L54.4049 54.7031L54.9043 54.727ZM55.3325 55.1424L55.3125 55.642L55.3225 55.6424H55.3325V55.1424ZM55.3521 55.1424V55.6424H55.3527L55.3521 55.1424ZM55.8009 54.76L56.3003 54.7845L56.3003 54.7844L55.8009 54.76ZM56.4994 40.4882L56.0002 40.4584L56 40.4637L56.4994 40.4882ZM50.6839 30.1768L50.2306 30.3879L50.6839 30.1768ZM47.3066 28.1707V27.6707L47.3062 27.6707L47.3066 28.1707ZM49.891 33.7179L50.2231 34.0916L49.891 33.7179ZM45.907 34.4216L46.0799 33.9525L46.0799 33.9525L45.907 34.4216ZM43.6512 31.4191L43.1512 31.4184V31.4189L43.6512 31.4191ZM44.0051 36.9372V37.4372H44.3634L44.4786 37.098L44.0051 36.9372ZM44.0206 36.8767L43.553 36.6997L43.5362 36.744L43.528 36.7908L44.0206 36.8767ZM44.0041 36.9372V36.4372H43.6976L43.5585 36.7104L44.0041 36.9372ZM43.0869 40.0691L42.5946 39.9815L42.4901 40.5691H43.0869V40.0691ZM49.8519 40.0691V40.5691H50.4601L50.3425 39.9724L49.8519 40.0691ZM49.593 38.9686L49.1134 39.1102L49.1145 39.1139L49.593 38.9686ZM49.9133 38.4811L50.0269 38.968H50.0269L49.9133 38.4811ZM50.4617 38.7659L50.942 38.627L50.9412 38.6243L50.4617 38.7659ZM50.7629 40.0718L50.272 40.1664L50.3501 40.5718H50.7629V40.0718ZM52.4581 40.0718V40.5718H53.0598L52.9496 39.9803L52.4581 40.0718ZM49.9025 34.7674L50.199 34.3648L50.1896 34.3578L50.1798 34.3513L49.9025 34.7674ZM49.8818 34.7536L50.1592 34.3376L49.8927 34.1599L49.6199 34.3277L49.8818 34.7536ZM45.4175 35.0975L45.6073 34.6349L45.5402 34.6074L45.4681 34.6001L45.4175 35.0975ZM45.2473 35.0489L45.024 35.4963L45.0257 35.4971L45.2473 35.0489ZM38.2316 31.5465L38.006 31.9928L38.0082 31.9939L38.2316 31.5465ZM37.4516 31.4631L37.5725 31.9482L37.5743 31.9478L37.4516 31.4631ZM36.7101 32.2326L37.2057 32.2993L36.7101 32.2326ZM37.2267 33.1359L37.45 32.6885L37.4498 32.6884L37.2267 33.1359ZM43.8153 36.4245L44.0881 36.0055L44.0641 35.9899L44.0386 35.9772L43.8153 36.4245ZM43.8679 36.4649L43.5334 36.8366L43.5676 36.8673L43.6068 36.8913L43.8679 36.4649ZM43.936 36.5172L44.3103 36.1857L44.2965 36.1701L44.2814 36.1557L43.936 36.5172ZM43.9803 36.5814L43.5372 36.813L43.5549 36.8467L43.5774 36.8774L43.9803 36.5814ZM44.0196 36.6492L44.5007 36.5132L44.4914 36.4804L44.4778 36.4492L44.0196 36.6492ZM44.034 36.7244L43.5367 36.7761L43.5388 36.797L43.5428 36.8177L44.034 36.7244ZM44.0402 36.7987L44.536 36.8633L44.5395 36.8366L44.5401 36.8096L44.0402 36.7987ZM56.0543 40.5718C56.0554 40.5718 56.0553 40.5721 56.0535 40.5714C56.0517 40.5707 56.0462 40.5683 56.0389 40.5615L56.7205 39.8298C56.5374 39.6592 56.296 39.572 56.0551 39.5718L56.0543 40.5718ZM53.3722 40.5718H56.0547V39.5718H53.3722V40.5718ZM50.2665 34.6287C51.476 35.5727 52.3837 37.3883 52.88 40.16L53.8644 39.9837C53.3517 37.1207 52.3796 35.0094 50.8818 33.8404L50.2665 34.6287ZM50.4922 29.2132C51.7426 30.5996 51.6412 32.5826 50.2369 33.8654L50.9114 34.6037C52.7137 32.9572 52.8605 30.346 51.2348 28.5435L50.4922 29.2132ZM45.1595 28.4027C46.9248 27.4354 49.218 27.8004 50.4922 29.2132L51.2348 28.5435C49.633 26.7674 46.8277 26.3483 44.6789 27.5257L45.1595 28.4027ZM43.6119 32.8667C42.7929 31.2754 43.4137 29.3593 45.1595 28.4027L44.6789 27.5257C42.5106 28.7139 41.6289 31.199 42.7228 33.3243L43.6119 32.8667ZM38.4468 31.2988L42.9441 33.5429L43.3906 32.6481L38.8933 30.404L38.4468 31.2988ZM36.5391 31.802C36.8989 31.2333 37.7476 30.9805 38.4628 31.3064L38.8774 30.3964C37.7536 29.8843 36.3471 30.235 35.694 31.2674L36.5391 31.802ZM37.0258 33.3903C36.3724 33.0335 36.2027 32.3338 36.5391 31.802L35.694 31.2674C35.0175 32.3367 35.4391 33.6633 36.5465 34.268L37.0258 33.3903ZM43.2515 36.5L37.0096 33.3819L36.5627 34.2765L42.8047 37.3946L43.2515 36.5ZM42.6729 40.1561C42.8774 38.9602 43.1731 37.8798 43.4878 37.1439L42.5684 36.7507C42.2125 37.583 41.8995 38.7458 41.6872 39.9876L42.6729 40.1561ZM39.0508 40.5718H42.18V39.5718H39.0508V40.5718ZM39.0678 40.5615C39.0605 40.5683 39.055 40.5707 39.0533 40.5714C39.0515 40.5721 39.0513 40.5718 39.0524 40.5718L39.0491 39.5718C38.8094 39.5726 38.5692 39.6596 38.3868 39.8292L39.0678 40.5615ZM39.1025 40.465C39.1047 40.5132 39.0835 40.547 39.0678 40.5615L38.3868 39.8292C38.2022 40.0009 38.0912 40.246 38.1036 40.5114L39.1025 40.465ZM39.805 54.7363L39.1024 40.4636L38.1036 40.5128L38.8062 54.7855L39.805 54.7363ZM39.7582 54.6427C39.7531 54.6428 39.7574 54.6408 39.7677 54.6492C39.7788 54.6582 39.8021 54.6857 39.8048 54.7318L38.8065 54.79C38.838 55.3313 39.3264 55.6568 39.7898 55.6422L39.7582 54.6427ZM39.7028 54.7508C39.7005 54.7024 39.7222 54.6684 39.7365 54.6545C39.7498 54.6416 39.7579 54.6426 39.754 54.6428L39.7941 55.642C40.2612 55.6233 40.7279 55.2542 40.7016 54.7031L39.7028 54.7508ZM39.0208 40.8952L39.7028 54.7515L40.7016 54.7024L40.0196 40.846L39.0208 40.8952ZM55.5863 40.3706H39.5202V41.3706H55.5863V40.3706ZM55.4037 54.7515L56.0857 40.8952L55.0869 40.846L54.4049 54.7024L55.4037 54.7515ZM55.3525 54.6428C55.3486 54.6426 55.3567 54.6416 55.37 54.6545C55.3843 54.6684 55.4061 54.7024 55.4038 54.7508L54.4049 54.7031C54.3786 55.2542 54.8453 55.6233 55.3125 55.642L55.3525 54.6428ZM55.3521 54.6424H55.3325V55.6424H55.3521V54.6424ZM55.3015 54.7355C55.3038 54.6895 55.3264 54.6609 55.3385 54.6506C55.3499 54.6409 55.3556 54.6424 55.3515 54.6424L55.3527 55.6424C55.8069 55.6419 56.2743 55.3139 56.3003 54.7845L55.3015 54.7355ZM56 40.4637L55.3015 54.7355L56.3003 54.7844L56.9988 40.5126L56 40.4637ZM56.0347 40.5576C56.0184 40.542 55.9974 40.5071 56.0003 40.4584L56.9985 40.518C57.0143 40.2535 56.9069 40.0074 56.7247 39.8337L56.0347 40.5576ZM51.1371 29.9656C50.479 28.5532 48.9541 27.6707 47.3066 27.6707V28.6707C48.6162 28.6707 49.7572 29.3718 50.2306 30.3879L51.1371 29.9656ZM50.2231 34.0916C51.4239 33.0246 51.8017 31.3922 51.1371 29.9656L50.2306 30.3879C50.6975 31.3899 50.4495 32.5527 49.5589 33.3441L50.2231 34.0916ZM45.7342 34.8908C47.2643 35.4545 49.0328 35.1494 50.2231 34.0916L49.5589 33.3441C48.6579 34.1448 47.2815 34.3952 46.0799 33.9525L45.7342 34.8908ZM43.1512 31.4189C43.1507 32.9709 44.1995 34.3254 45.7342 34.8908L46.0799 33.9525C44.8828 33.5114 44.1508 32.4958 44.1512 31.4192L43.1512 31.4189ZM47.3062 27.6707C45.0696 27.6724 43.1539 29.2956 43.1512 31.4184L44.1512 31.4197C44.153 29.9555 45.5082 28.6721 47.307 28.6707L47.3062 27.6707ZM44.4786 37.098C44.4935 37.0539 44.5051 37.0087 44.5132 36.9626L43.528 36.7908C43.5289 36.7856 43.5302 36.7808 43.5317 36.7764L44.4786 37.098ZM44.0041 37.4372H44.0051V36.4372H44.0041V37.4372ZM43.5791 40.1566C43.8048 38.8882 44.1285 37.795 44.4497 37.164L43.5585 36.7104C43.1719 37.4698 42.827 38.6747 42.5946 39.9815L43.5791 40.1566ZM49.8519 39.5691H43.0869V40.5691H49.8519V39.5691ZM49.1145 39.1139C49.1908 39.365 49.2737 39.7209 49.3613 40.1657L50.3425 39.9724C50.2527 39.5167 50.1622 39.1224 50.0714 38.8232L49.1145 39.1139ZM49.7997 37.9942C49.3324 38.1032 48.9545 38.572 49.1134 39.1102L50.0725 38.827C50.0855 38.8711 50.0745 38.9145 50.0574 38.9405C50.0416 38.9645 50.0259 38.9683 50.0269 38.968L49.7997 37.9942ZM50.9412 38.6243C50.791 38.1157 50.2534 37.8884 49.7997 37.9942L50.0269 38.968C50.0287 38.9676 50.0282 38.9688 50.0234 38.9663C50.0185 38.9638 49.9941 38.9481 49.9821 38.9075L50.9412 38.6243ZM51.2539 39.9772C51.149 39.4328 51.0426 38.9749 50.942 38.627L49.9813 38.9047C50.0706 39.2135 50.1705 39.6396 50.272 40.1664L51.2539 39.9772ZM52.4581 39.5718H50.7629V40.5718H52.4581V39.5718ZM49.606 35.1699C50.6463 35.9362 51.4912 37.611 51.9665 40.1634L52.9496 39.9803C52.4613 37.3584 51.5543 35.363 50.199 34.3648L49.606 35.1699ZM49.6045 35.1696L49.6251 35.1834L50.1798 34.3513L50.1592 34.3376L49.6045 35.1696ZM45.2278 35.5601C46.8244 36.215 48.6902 36.0734 50.1437 35.1795L49.6199 34.3277C48.4437 35.051 46.9142 35.1709 45.6073 34.6349L45.2278 35.5601ZM45.0257 35.4971C45.1332 35.5503 45.2491 35.583 45.367 35.5949L45.4681 34.6001C45.4664 34.5999 45.4666 34.5996 45.4689 34.6007L45.0257 35.4971ZM38.0082 31.9939L45.024 35.4963L45.4706 34.6016L38.4549 31.0992L38.0082 31.9939ZM37.5743 31.9478C37.7218 31.9104 37.879 31.9285 38.006 31.9928L38.4571 31.1003C38.1104 30.9251 37.7055 30.883 37.3288 30.9784L37.5743 31.9478ZM37.2057 32.2993C37.2238 32.1646 37.3423 32.0056 37.5725 31.9482L37.3307 30.9779C36.7617 31.1197 36.295 31.5682 36.2146 32.166L37.2057 32.2993ZM37.4498 32.6884C37.2552 32.5914 37.1884 32.4279 37.2057 32.2993L36.2146 32.166C36.1334 32.7698 36.4744 33.3194 37.0035 33.5833L37.4498 32.6884ZM44.0386 35.9772L37.45 32.6885L37.0033 33.5832L43.592 36.8719L44.0386 35.9772ZM44.2023 36.0932C44.1664 36.0609 44.1281 36.0316 44.0881 36.0055L43.5425 36.8436C43.5398 36.8419 43.5368 36.8396 43.5334 36.8366L44.2023 36.0932ZM44.2814 36.1557C44.2346 36.1109 44.1833 36.0718 44.129 36.0385L43.6068 36.8913C43.602 36.8884 43.5964 36.8843 43.5905 36.8787L44.2814 36.1557ZM44.4235 36.3498C44.3923 36.29 44.3541 36.2351 44.3103 36.1857L43.5616 36.8486C43.553 36.8389 43.5445 36.827 43.5372 36.813L44.4235 36.3498ZM44.4778 36.4492C44.4523 36.3907 44.4204 36.3359 44.3833 36.2853L43.5774 36.8774C43.5716 36.8696 43.5661 36.8602 43.5613 36.8493L44.4778 36.4492ZM44.5313 36.6728C44.5257 36.6187 44.5154 36.5653 44.5007 36.5132L43.5384 36.7853C43.5376 36.7825 43.537 36.7794 43.5367 36.7761L44.5313 36.6728ZM44.5401 36.8096C44.5414 36.7497 44.5364 36.6899 44.5252 36.6312L43.5428 36.8177C43.5409 36.8081 43.5401 36.798 43.5403 36.7879L44.5401 36.8096ZM44.4882 37.0537C44.5113 36.9925 44.5275 36.9287 44.536 36.8633L43.5444 36.7341C43.546 36.7218 43.549 36.7102 43.553 36.6997L44.4882 37.0537Z" fill="#FF920A"/>
<path d="M54.1904 35.9458C54.1904 36.1662 54.3913 36.3448 54.6392 36.3448C54.887 36.3448 55.088 36.1662 55.088 35.9458V16.4044C55.0893 16.2982 55.0431 16.1959 54.9595 16.12C54.8759 16.0442 54.7617 16.001 54.6423 16H17.9447C17.8254 16.0012 17.7115 16.0445 17.6281 16.1203C17.5447 16.1962 17.4987 16.2984 17.5 16.4044V45.568C17.5115 45.7811 17.7093 45.9487 17.9493 45.9487C18.1894 45.9487 18.3872 45.7811 18.3987 45.568V16.7988H54.1996L54.1904 35.9458Z" stroke="#FF920A"/>
<path d="M41.6331 20.8065C41.8729 20.7963 42.0614 20.6205 42.0614 20.4071C42.0614 20.1937 41.8729 20.0179 41.6331 20.0077H30.9495C30.7097 20.0179 30.5212 20.1937 30.5212 20.4071C30.5212 20.6205 30.7097 20.7963 30.9495 20.8065H41.6331Z" stroke="#FF920A"/>
<path d="M21.4753 24.9737C21.4753 25.1941 21.6763 25.3727 21.9241 25.3727H50.6588C50.8986 25.3625 51.0871 25.1867 51.0871 24.9733C51.0871 24.7599 50.8986 24.5841 50.6588 24.5739H21.9241C21.6761 24.5744 21.4753 24.7533 21.4753 24.9737Z" stroke="#FF920A"/>
<path d="M32.0929 33.3789H31.5929V33.8789H32.0929V33.3789ZM34.3317 33.3789V33.8789L34.3348 33.8789L34.3317 33.3789ZM24.6066 36.3448H25.1066V35.8448H24.6066V36.3448ZM24.7381 41.2435L25.0703 40.8698L25.0703 40.8698L24.7381 41.2435ZM34.7846 33.7787L34.2846 33.7787V33.7787H34.7846ZM34.6518 33.495L34.9827 33.1202L34.9827 33.1202L34.6518 33.495ZM22.3729 29.1419V28.6419H21.8729V29.1419H22.3729ZM22.3729 35.5469H21.8729V36.0469H22.3729V35.5469ZM31.1952 29.1419H31.6952V28.6419H31.1952V29.1419ZM31.1952 33.3789V33.8789H31.6952V33.3789H31.1952ZM25.0513 33.3789V32.8789L25.0502 32.8789L25.0513 33.3789ZM24.6025 33.7788H25.1025V33.7787L24.6025 33.7788ZM24.6025 35.5469V36.0469H25.1025V35.5469H24.6025ZM33.8828 40.5625V41.0625H34.3828V40.5625H33.8828ZM25.5011 40.5625H25.0011V41.0625H25.5011V40.5625ZM33.8828 34.1777H34.3828V33.6777H33.8828V34.1777ZM25.5011 34.1777V33.6777H25.0011V34.1777H25.5011ZM32.0929 33.8789H34.3317V32.8789H32.0929V33.8789ZM31.5929 28.7421V33.3789H32.5929V28.7421H31.5929ZM31.6441 28.8431C31.6482 28.8431 31.6415 28.8446 31.6292 28.8337C31.616 28.822 31.5929 28.7905 31.5929 28.7421H32.5929C32.5929 28.1919 32.1111 27.8431 31.6441 27.8431V28.8431ZM21.9241 28.8431H31.6441V27.8431H21.9241V28.8431ZM21.9753 28.7421C21.9753 28.7905 21.9522 28.822 21.939 28.8337C21.9267 28.8446 21.92 28.8431 21.9241 28.8431V27.8431C21.4571 27.8431 20.9753 28.1919 20.9753 28.7421H21.9753ZM21.9753 35.9458V28.7421H20.9753V35.9458H21.9753ZM21.9241 35.8448C21.92 35.8448 21.9267 35.8433 21.939 35.8542C21.9522 35.8659 21.9753 35.8975 21.9753 35.9458H20.9753C20.9753 36.496 21.4571 36.8448 21.9241 36.8448V35.8448ZM24.6066 35.8448H21.9241V36.8448H24.6066V35.8448ZM25.1066 40.9614V36.3448H24.1066V40.9614H25.1066ZM25.0703 40.8698C25.0851 40.883 25.1066 40.9143 25.1066 40.9614H24.1066C24.1066 41.2201 24.2228 41.4544 24.4059 41.6172L25.0703 40.8698ZM25.0554 40.8603C25.0545 40.8603 25.0547 40.8601 25.0564 40.8608C25.0581 40.8614 25.0633 40.8636 25.0703 40.8698L24.4059 41.6172C24.5871 41.7783 24.8216 41.8603 25.0554 41.8603V40.8603ZM34.3358 40.8603H25.0554V41.8603H34.3358V40.8603ZM34.2846 40.9614C34.2846 40.913 34.3078 40.8815 34.321 40.8698C34.3333 40.8589 34.34 40.8603 34.3358 40.8603V41.8603C34.8029 41.8603 35.2846 41.5116 35.2846 40.9614H34.2846ZM34.2846 33.7787V40.9614H35.2846V33.7787H34.2846ZM34.3209 33.8699C34.3063 33.857 34.2846 33.8258 34.2846 33.7787L35.2846 33.7788C35.2846 33.5186 35.1674 33.2832 34.9827 33.1202L34.3209 33.8699ZM34.3348 33.8789C34.3358 33.8789 34.3358 33.8791 34.3343 33.8786C34.3328 33.878 34.3277 33.8759 34.3209 33.8699L34.9827 33.1202C34.8 32.9589 34.5638 32.8775 34.3287 32.8789L34.3348 33.8789ZM21.8729 29.1419V35.5469H22.8729V29.1419H21.8729ZM31.1952 28.6419H22.3729V29.6419H31.1952V28.6419ZM31.6952 33.3789V29.1419H30.6952V33.3789H31.6952ZM25.0513 33.8789H31.1952V32.8789H25.0513V33.8789ZM25.1025 33.7787C25.1025 33.8268 25.0795 33.8581 25.0665 33.8697C25.0544 33.8804 25.0479 33.8789 25.0523 33.8789L25.0502 32.8789C24.5833 32.8799 24.1025 33.229 24.1025 33.7788L25.1025 33.7787ZM25.1025 35.5469V33.7788H24.1025V35.5469H25.1025ZM22.3729 36.0469H24.6025V35.0469H22.3729V36.0469ZM33.8828 40.0625H25.5011V41.0625H33.8828V40.0625ZM33.3828 34.1777V40.5625H34.3828V34.1777H33.3828ZM25.5011 34.6777H33.8828V33.6777H25.5011V34.6777ZM26.0011 40.5625V34.1777H25.0011V40.5625H26.0011Z" fill="#FF920A"/>
</svg>
