<svg width="72" height="72" viewBox="0 0 72 72" fill="none" xmlns="http://www.w3.org/2000/svg">
<circle cx="36" cy="36" r="36" fill="#E8FFE4"/>
<path fill-rule="evenodd" clip-rule="evenodd" d="M18.7644 46.7581H42.4828C42.7466 46.8628 42.9199 47.1187 42.9199 47.4035C42.9199 47.6883 42.7466 47.9442 42.4828 48.0488H18.7644C17.2377 48.0488 16 46.8061 16 45.273V24.4545C16 22.9214 17.2377 21.6787 18.7644 21.6787H20.893V19.8605C20.893 19.4772 21.2024 19.1665 21.5841 19.1665C21.9657 19.1665 22.2752 19.4772 22.2752 19.8605V21.6787H29.1861V19.8605C29.1861 19.4772 29.4955 19.1665 29.8772 19.1665C30.2589 19.1665 30.5683 19.4772 30.5683 19.8605V21.6787H37.4793V19.8605C37.4793 19.4772 37.7887 19.1665 38.1704 19.1665C38.5521 19.1665 38.8615 19.4772 38.8615 19.8605V21.6787H45.7724V19.694C45.7724 19.3107 46.0818 19 46.4635 19C46.8452 19 47.1546 19.3107 47.1546 19.694V21.7758H49.4905C51.0173 21.7758 52.2549 23.0186 52.2549 24.5516V38.9719C52.2549 39.3552 51.9455 39.6659 51.5638 39.6659C51.1821 39.6659 50.8727 39.3552 50.8727 38.9719V29.1872H17.3822V45.3702C17.3822 46.1367 18.001 46.7581 18.7644 46.7581ZM21.045 23.0666H18.7644C18.3733 23.0538 17.9951 23.2081 17.7237 23.4912C17.4523 23.7743 17.3132 24.1596 17.3408 24.5516V27.7577H50.9695V24.4545C50.9695 23.6879 50.3507 23.0666 49.5873 23.0666H47.3067V24.7182C47.3067 25.1014 46.9973 25.4121 46.6156 25.4121C46.2339 25.4121 45.9245 25.1014 45.9245 24.7182V23.0666H39.0135V24.8847C39.0135 25.268 38.7041 25.5787 38.3224 25.5787C37.9408 25.5787 37.6313 25.268 37.6313 24.8847V23.0666H30.7204V24.8847C30.7204 25.268 30.411 25.5787 30.0293 25.5787C29.6476 25.5787 29.3382 25.268 29.3382 24.8847V23.0666H22.4272V24.8847C22.4272 25.268 22.1178 25.5787 21.7361 25.5787C21.3544 25.5787 21.045 25.268 21.045 24.8847V23.0666Z" fill="#00DD00"/>
<rect x="26.6152" y="31.5328" width="2.65381" height="2.66478" fill="#00DD00"/>
<rect x="32.835" y="31.5328" width="2.65381" height="2.66478" fill="#00DD00"/>
<rect x="39.0549" y="31.5189" width="2.65381" height="2.66478" fill="#00DD00"/>
<rect x="20.3953" y="36.6264" width="2.65381" height="2.66478" fill="#00DD00"/>
<rect x="26.6152" y="36.6264" width="2.65381" height="2.66478" fill="#00DD00"/>
<rect x="32.835" y="36.6264" width="2.65381" height="2.66478" fill="#00DD00"/>
<rect x="20.3953" y="41.7755" width="2.65381" height="2.66478" fill="#00DD00"/>
<rect x="26.6152" y="41.7755" width="2.65381" height="2.66478" fill="#00DD00"/>
<rect x="32.835" y="41.7477" width="2.65381" height="2.66478" fill="#00DD00"/>
<rect x="39.0549" y="41.7477" width="2.65381" height="2.66478" fill="#00DD00"/>
<rect x="39.0549" y="36.6125" width="2.65381" height="2.66478" fill="#00DD00"/>
<rect x="45.1643" y="31.4911" width="2.65381" height="2.66478" fill="#00DD00"/>
<rect x="45.1643" y="36.5847" width="2.65381" height="2.66478" fill="#00DD00"/>
<path fill-rule="evenodd" clip-rule="evenodd" d="M44.9157 44.2956C45.8136 42.1265 47.9254 40.7151 50.2647 40.7207C53.4448 40.7283 56.0208 43.315 56.0284 46.5082C56.034 48.8572 54.6284 50.9778 52.4682 51.8793C50.3081 52.7808 47.8197 52.2853 46.1655 50.6243C44.5114 48.9634 44.0179 46.4647 44.9157 44.2956ZM46.1941 48.2069C46.8787 49.8556 48.4857 50.9274 50.2647 50.9218C52.6868 50.9141 54.6463 48.9404 54.6462 46.5082C54.6462 44.7219 53.5738 43.1117 51.9297 42.4294C50.2856 41.747 48.394 42.1272 47.138 43.3923C45.882 44.6575 45.5094 46.5581 46.1941 48.2069Z" fill="#00DD00"/>
<path d="M51.8955 44.5652L49.5043 47.0357L48.5782 46.2862C48.3921 46.0987 48.1159 46.0339 47.8663 46.1192C47.6167 46.2044 47.4372 46.4248 47.4034 46.6873C47.3697 46.9498 47.4876 47.2088 47.7074 47.3549L49.0896 48.5069C49.3527 48.7452 49.7527 48.7452 50.0157 48.5069L52.8492 45.5784C53.1278 45.3139 53.1402 44.8727 52.8768 44.593C52.6135 44.3132 52.1741 44.3008 51.8955 44.5652Z" fill="#00DD00"/>
</svg>
