<svg width="72" height="72" viewBox="0 0 72 72" fill="none" xmlns="http://www.w3.org/2000/svg">
<circle cx="36" cy="36" r="36" fill="#FCDDEC"/>
<rect width="42" height="43" transform="translate(15 14)" fill="white" fill-opacity="0.03"/>
<path fill-rule="evenodd" clip-rule="evenodd" d="M43.1085 46.1932H27.1486C26.2335 46.1932 25.4907 45.4708 25.4907 44.5807C25.4907 43.6906 26.2335 42.9682 27.1486 42.9682H43.1085C44.0237 42.9682 44.7664 43.6906 44.7664 44.5807C44.7664 45.4708 44.0237 46.1932 43.1085 46.1932Z" fill="#EF5DA8"/>
<path fill-rule="evenodd" clip-rule="evenodd" d="M43.1085 37.1923H27.1486C26.2335 37.1923 25.4907 36.4699 25.4907 35.5798C25.4907 34.6897 26.2335 33.9673 27.1486 33.9673H43.1085C44.0237 33.9673 44.7664 34.6897 44.7664 35.5798C44.7664 36.4699 44.0237 37.1923 43.1085 37.1923Z" fill="#EF5DA8"/>
<path fill-rule="evenodd" clip-rule="evenodd" d="M33.2381 28.2123H27.1481C26.233 28.2123 25.4902 27.4899 25.4902 26.5998C25.4902 25.7097 26.233 24.9873 27.1481 24.9873H33.2381C34.1533 24.9873 34.896 25.7097 34.896 26.5998C34.896 27.4899 34.1533 28.2123 33.2381 28.2123Z" fill="#EF5DA8"/>
<mask id="mask0_118_2217" style="mask-type:luminance" maskUnits="userSpaceOnUse" x="15" y="14" width="41" height="43">
<path fill-rule="evenodd" clip-rule="evenodd" d="M15 14H55.1535V56.8061H15V14Z" fill="white"/>
</mask>
<g mask="url(#mask0_118_2217)">
<path fill-rule="evenodd" clip-rule="evenodd" d="M43.5353 17.225L26.5385 17.2336C21.3924 17.2637 18.3153 20.3597 18.3153 25.5176V45.289C18.3153 50.4812 21.4211 53.5815 26.618 53.5815L43.6149 53.5751C48.761 53.545 51.838 50.4447 51.838 45.289V25.5176C51.838 20.3253 48.7345 17.225 43.5353 17.225ZM26.6203 56.8065C19.6704 56.8065 14.9995 52.1776 14.9995 45.289V25.5176C14.9995 18.5666 19.5245 14.0495 26.5274 14.0086L43.5331 14H43.5353C50.4852 14 55.1538 18.6289 55.1538 25.5176V45.289C55.1538 52.2378 50.6289 56.7571 43.6259 56.8001L26.6203 56.8065Z" fill="#EF5DA8"/>
</g>
</svg>
