<svg width="72" height="72" viewBox="0 0 72 72" fill="none" xmlns="http://www.w3.org/2000/svg">
<circle cx="36" cy="36" r="36" fill="#EDFAFF"/>
<path fill-rule="evenodd" clip-rule="evenodd" d="M29.6466 39.5933C31.2129 40.0086 32.6418 40.8299 33.7892 41.9741C35.5398 43.7004 36.5269 46.0552 36.5306 48.5137L36.5484 52.7278C36.5494 52.9806 36.3455 53.1864 36.0927 53.1878C35.7925 53.1768 35.6327 52.988 35.6327 52.7329L35.6148 48.5189C35.5966 43.9217 31.8654 40.2043 27.2683 40.2029H27.2326C25.0181 40.2115 22.8978 41.0995 21.3381 42.6715C19.7783 44.2435 18.907 46.3707 18.9158 48.5852L18.932 52.7992C18.9329 52.921 18.8851 53.0381 18.7991 53.1243C18.7132 53.2106 18.5963 53.2589 18.4745 53.2584C18.2229 53.2584 18.0185 53.0551 18.0171 52.8035L18.0001 48.5894C17.9839 44.4035 20.7733 40.7255 24.8084 39.612C22.261 38.4779 20.8505 35.7198 21.4221 32.9906C21.9937 30.2613 24.3923 28.301 27.1807 28.2843H27.2045C29.9917 28.2842 32.4013 30.2288 32.9896 32.9533C33.5779 35.6777 32.1855 38.4433 29.6466 39.5933ZM27.1875 29.2061C24.4271 29.2164 22.1975 31.4623 22.2074 34.2228V34.2262C22.2177 36.9797 24.4527 39.2064 27.2062 39.2064H27.2267C29.963 39.1656 32.1582 36.9328 32.1526 34.1962C32.147 31.4595 29.9427 29.2357 27.2062 29.2061H27.1875Z" fill="#1EA7FF"/>
<path d="M33.7892 41.9741L33.4362 42.3282L33.4382 42.3301L33.7892 41.9741ZM29.6466 39.5933L29.4403 39.1378L28.1619 39.7169L29.5184 40.0766L29.6466 39.5933ZM36.5306 48.5137L36.0306 48.5145L36.0306 48.5159L36.5306 48.5137ZM36.5484 52.7278L37.0484 52.726L37.0484 52.7257L36.5484 52.7278ZM36.0927 53.1878L36.0743 53.6875L36.0849 53.6879L36.0955 53.6878L36.0927 53.1878ZM35.6327 52.7329H36.1327L36.1327 52.7308L35.6327 52.7329ZM35.6148 48.5189L35.1148 48.5208V48.521L35.6148 48.5189ZM27.2683 40.2029L27.2685 39.7029H27.2683V40.2029ZM27.2326 40.2029V39.7029L27.2307 39.703L27.2326 40.2029ZM21.3381 42.6715L21.693 43.0236L21.3381 42.6715ZM18.9158 48.5852L19.4158 48.5833L19.4158 48.5832L18.9158 48.5852ZM18.932 52.7992L18.432 52.8012L18.432 52.803L18.932 52.7992ZM18.4745 53.2584L18.4764 52.7584H18.4745L18.4745 53.2584ZM18.0171 52.8035L17.5171 52.8055L17.5171 52.8063L18.0171 52.8035ZM18.0001 48.5894L17.5001 48.5914L17.5001 48.5914L18.0001 48.5894ZM24.8084 39.612L24.9414 40.094L26.2865 39.7228L25.0118 39.1552L24.8084 39.612ZM21.4221 32.9906L21.9115 33.0931L21.4221 32.9906ZM27.1807 28.2843V27.7843L27.1777 27.7843L27.1807 28.2843ZM27.2045 28.2843V28.7843H27.2046L27.2045 28.2843ZM32.9896 32.9533L33.4783 32.8477L32.9896 32.9533ZM22.2074 34.2228H22.7074L22.7073 34.221L22.2074 34.2228ZM27.1875 29.2061V28.7061L27.1857 28.7061L27.1875 29.2061ZM22.2074 34.2262H21.7073L21.7074 34.2281L22.2074 34.2262ZM27.2062 39.2064V38.7064H27.2062L27.2062 39.2064ZM27.2267 39.2064V39.7065L27.2341 39.7063L27.2267 39.2064ZM32.1526 34.1962L31.6526 34.1972L32.1526 34.1962ZM27.2062 29.2061L27.2117 28.7061H27.2062V29.2061ZM34.1423 41.6201C32.9326 40.4137 31.4261 39.5479 29.7747 39.11L29.5184 40.0766C30.9997 40.4694 32.3511 41.246 33.4362 42.3282L34.1423 41.6201ZM37.0306 48.513C37.0267 45.9209 35.986 43.4381 34.1403 41.6181L33.4382 42.3301C35.0936 43.9626 36.0271 46.1895 36.0306 48.5145L37.0306 48.513ZM37.0484 52.7257L37.0306 48.5116L36.0306 48.5159L36.0484 52.7299L37.0484 52.7257ZM36.0955 53.6878C36.624 53.6849 37.0504 53.2545 37.0484 52.726L36.0484 52.7297C36.0484 52.7067 36.0669 52.688 36.0899 52.6878L36.0955 53.6878ZM35.1327 52.7329C35.1327 52.9657 35.2073 53.209 35.39 53.3987C35.5738 53.5896 35.8207 53.6782 36.0743 53.6875L36.1111 52.6882C36.0866 52.6873 36.0788 52.6833 36.0824 52.6847C36.0868 52.6865 36.0981 52.6924 36.1103 52.7051C36.1223 52.7176 36.1289 52.7302 36.1319 52.7382C36.1345 52.7454 36.1327 52.7447 36.1327 52.7329H35.1327ZM35.1148 48.521L35.1327 52.735L36.1327 52.7308L36.1148 48.5167L35.1148 48.521ZM27.2682 40.7029C31.59 40.7042 35.0977 44.199 35.1148 48.5208L36.1148 48.5169C36.0955 43.6444 32.1409 39.7044 27.2685 39.7029L27.2682 40.7029ZM27.2326 40.7029H27.2683V39.7029H27.2326V40.7029ZM21.693 43.0236C23.1593 41.5458 25.1527 40.711 27.2345 40.7029L27.2307 39.703C24.8836 39.712 22.6362 40.6532 20.9831 42.3193L21.693 43.0236ZM19.4158 48.5832C19.4076 46.5013 20.2267 44.5015 21.693 43.0236L20.9831 42.3193C19.33 43.9854 18.4065 46.2401 18.4158 48.5872L19.4158 48.5832ZM19.432 52.7973L19.4158 48.5833L18.4158 48.5871L18.432 52.8012L19.432 52.7973ZM19.1533 53.4772C19.3335 53.2963 19.4339 53.0508 19.432 52.7955L18.432 52.803C18.4319 52.7912 18.4366 52.7798 18.4449 52.7714L19.1533 53.4772ZM18.4727 53.7584C18.728 53.7594 18.9731 53.6581 19.1533 53.4772L18.4449 52.7714C18.4533 52.763 18.4646 52.7584 18.4764 52.7584L18.4727 53.7584ZM17.5171 52.8063C17.52 53.333 17.9478 53.7584 18.4745 53.7584L18.4745 52.7584C18.4979 52.7584 18.5169 52.7773 18.5171 52.8007L17.5171 52.8063ZM17.5001 48.5914L17.5171 52.8055L18.5171 52.8015L18.5001 48.5874L17.5001 48.5914ZM24.6754 39.13C20.4228 40.3035 17.4831 44.1798 17.5001 48.5914L18.5001 48.5875C18.4848 44.6272 21.1238 41.1475 24.9414 40.094L24.6754 39.13ZM20.9327 32.8881C20.3128 35.8478 21.8425 38.8388 24.605 40.0688L25.0118 39.1552C22.6795 38.1169 21.3882 35.5918 21.9115 33.0931L20.9327 32.8881ZM27.1777 27.7843C24.1538 27.8024 21.5525 29.9283 20.9327 32.8881L21.9115 33.0931C22.4348 30.5943 24.6308 28.7996 27.1837 28.7843L27.1777 27.7843ZM27.2045 27.7843H27.1807V28.7843H27.2045V27.7843ZM33.4783 32.8477C32.8403 29.8931 30.2272 27.7842 27.2045 27.7843L27.2046 28.7843C29.7563 28.7842 31.9623 30.5645 32.5009 33.0588L33.4783 32.8477ZM29.8529 40.0487C32.6063 38.8016 34.1164 35.8023 33.4783 32.8477L32.5009 33.0588C33.0395 35.553 31.7647 38.085 29.4403 39.1378L29.8529 40.0487ZM22.7073 34.221C22.6985 31.7366 24.705 29.7153 27.1894 29.7061L27.1857 28.7061C24.1491 28.7174 21.6965 31.188 21.7074 34.2246L22.7073 34.221ZM22.7074 34.2262V34.2228H21.7074V34.2262H22.7074ZM27.2062 38.7064C24.7281 38.7064 22.7166 36.7024 22.7073 34.2243L21.7074 34.2281C21.7187 37.257 24.1773 39.7064 27.2062 39.7064L27.2062 38.7064ZM27.2267 38.7064H27.2062V39.7064H27.2267V38.7064ZM31.6526 34.1972C31.6577 36.6602 29.6819 38.6697 27.2192 38.7065L27.2341 39.7063C30.244 39.6614 32.6588 37.2054 32.6526 34.1951L31.6526 34.1972ZM27.2008 29.706C29.6637 29.7327 31.6476 31.7342 31.6526 34.1972L32.6526 34.1951C32.6465 31.1849 30.2218 28.7387 27.2117 28.7061L27.2008 29.706ZM27.1875 29.7061H27.2062V28.7061H27.1875V29.7061Z" fill="#1EA7FF"/>
<path fill-rule="evenodd" clip-rule="evenodd" d="M54.0001 27.5074C54.0004 32.7481 49.7523 36.9969 44.5116 36.9973C39.2728 36.9922 35.0271 32.7468 35.0215 27.508C35.0215 22.2673 39.2698 18.0189 44.5105 18.0187C49.7512 18.0185 53.9998 22.2668 54.0001 27.5074ZM53.0861 27.508C53.0861 22.7725 49.2472 18.9336 44.5117 18.9336C39.7781 18.9383 35.942 22.7744 35.9373 27.508C35.9373 32.2435 39.7762 36.0824 44.5117 36.0824C49.2472 36.0824 53.0861 32.2435 53.0861 27.508Z" fill="#1EA7FF"/>
<path d="M44.5116 36.9973L44.5112 37.4973H44.5117L44.5116 36.9973ZM54.0001 27.5074L54.5001 27.5074L54.0001 27.5074ZM35.0215 27.508H34.5215L34.5215 27.5086L35.0215 27.508ZM44.5105 18.0187L44.5105 18.5187L44.5105 18.0187ZM44.5117 18.9336V18.4336L44.5112 18.4336L44.5117 18.9336ZM35.9373 27.508L35.4373 27.5075V27.508H35.9373ZM44.5117 37.4973C50.0285 37.4968 54.5004 33.0242 54.5001 27.5074L53.5001 27.5075C53.5004 32.472 49.4762 36.4969 44.5116 36.4973L44.5117 37.4973ZM34.5215 27.5086C34.5274 33.0231 38.9966 37.4919 44.5112 37.4973L44.5121 36.4973C39.5491 36.4924 35.5268 32.4705 35.5215 27.5075L34.5215 27.5086ZM44.5105 17.5187C38.9937 17.5189 34.5215 21.9912 34.5215 27.508H35.5215C35.5215 22.5435 39.546 18.5189 44.5105 18.5187L44.5105 17.5187ZM54.5001 27.5074C54.4998 21.9906 50.0273 17.5185 44.5105 17.5187L44.5105 18.5187C49.4751 18.5186 53.4998 22.5429 53.5001 27.5075L54.5001 27.5074ZM44.5117 19.4336C48.9711 19.4336 52.5861 23.0486 52.5861 27.508H53.5861C53.5861 22.4964 49.5234 18.4336 44.5117 18.4336V19.4336ZM36.4373 27.5085C36.4417 23.0507 40.0544 19.438 44.5122 19.4336L44.5112 18.4336C39.5019 18.4386 35.4423 22.4982 35.4373 27.5075L36.4373 27.5085ZM44.5117 35.5824C40.0523 35.5824 36.4373 31.9674 36.4373 27.508H35.4373C35.4373 32.5197 39.5001 36.5824 44.5117 36.5824V35.5824ZM52.5861 27.508C52.5861 31.9674 48.9711 35.5824 44.5117 35.5824V36.5824C49.5234 36.5824 53.5861 32.5197 53.5861 27.508H52.5861Z" fill="#1EA7FF"/>
<path d="M44.5566 31.16H44.5234C43.1587 31.1235 42.8994 30.3097 42.8832 30.2604C42.8134 30.0249 42.57 29.8866 42.3319 29.9472C42.0938 30.0077 41.9461 30.2455 41.9972 30.4858C42.0108 30.5436 42.3458 31.8046 44.0541 32.0384V32.7186C44.0541 32.9713 44.2589 33.1761 44.5115 33.1761C44.7642 33.1761 44.969 32.9713 44.969 32.7186V32.0384C45.9417 31.8573 46.8031 31.0606 46.9969 30.0887C47.1151 29.4986 47.1245 28.0258 44.6756 27.082C43.4078 26.5931 42.7693 25.8737 42.9215 25.1059C43.0584 24.4257 43.7514 23.8568 44.4979 23.856C45.8763 23.8934 46.1271 24.7233 46.1356 24.7514C46.203 24.9889 46.4465 25.1303 46.6862 25.0712C46.926 25.012 47.0758 24.7736 47.025 24.532C47.0106 24.4733 46.6764 23.2123 44.9681 22.9776V22.2974C44.9576 22.0522 44.7557 21.8588 44.5103 21.8588C44.2648 21.8588 44.0629 22.0522 44.0524 22.2974V22.9912C43.1085 23.1868 42.2183 23.9614 42.0244 24.9291C41.9062 25.5192 41.8969 26.9927 44.3466 27.9374C45.6135 28.4255 46.2538 29.1457 46.0999 29.9118C45.9655 30.5835 45.2487 31.16 44.5566 31.16Z" fill="#1EA7FF" stroke="#1EA7FF"/>
<path fill-rule="evenodd" clip-rule="evenodd" d="M46.0931 42.7334C46.3458 42.7334 46.5506 42.9382 46.5506 43.1909C46.5506 43.4435 46.3458 43.6484 46.0931 43.6484C42.5712 43.6484 42.3586 48.0699 42.3518 48.2578C42.3413 48.503 42.1394 48.6964 41.894 48.6964C41.6485 48.6964 41.4466 48.503 41.4361 48.2578C41.4276 48.0699 41.2031 43.6484 37.6948 43.6484C37.4421 43.6484 37.2373 43.4435 37.2373 43.1909C37.2373 42.9382 37.4421 42.7334 37.6948 42.7334C41.2048 42.7334 41.4293 38.311 41.4361 38.1223C41.4466 37.8771 41.6485 37.6837 41.894 37.6837C42.1394 37.6837 42.3413 37.8771 42.3518 38.1223C42.3603 38.3119 42.5848 42.7334 46.0931 42.7334ZM39.6624 43.1909C40.7899 43.7818 41.4931 44.8643 41.8953 45.9603V45.9637C42.2983 44.8677 42.9981 43.7861 44.129 43.1909C43.0006 42.5999 42.2983 41.5167 41.8953 40.4215C41.4931 41.5167 40.7933 42.5957 39.6624 43.1909Z" fill="#1EA7FF"/>
<path d="M42.3518 48.2578L42.8514 48.2793L42.8515 48.2759L42.3518 48.2578ZM41.4361 48.2578L41.9356 48.2363L41.9356 48.2352L41.4361 48.2578ZM41.4361 38.1223L40.9365 38.1007L40.9364 38.1043L41.4361 38.1223ZM42.3518 38.1223L41.8523 38.1438L41.8523 38.1447L42.3518 38.1223ZM41.8953 45.9603H42.3953V45.8715L42.3647 45.7881L41.8953 45.9603ZM39.6624 43.1909L39.4295 42.7484L38.5871 43.1918L39.4303 43.6337L39.6624 43.1909ZM41.8953 45.9637H41.3953L42.3645 46.1363L41.8953 45.9637ZM44.129 43.1909L44.3619 43.6334L45.2046 43.1898L44.361 42.748L44.129 43.1909ZM41.8953 40.4215L42.3645 40.2488L41.8948 38.9724L41.4259 40.2491L41.8953 40.4215ZM47.0506 43.1909C47.0506 42.6621 46.6219 42.2334 46.0931 42.2334V43.2334C46.0696 43.2334 46.0506 43.2144 46.0506 43.1909H47.0506ZM46.0931 44.1484C46.6219 44.1484 47.0506 43.7197 47.0506 43.1909H46.0506C46.0506 43.1674 46.0696 43.1484 46.0931 43.1484V44.1484ZM42.8515 48.2759C42.8541 48.2031 42.9059 47.1256 43.3623 46.0831C43.8119 45.0563 44.6054 44.1484 46.0931 44.1484V43.1484C44.0589 43.1484 42.9852 44.4512 42.4463 45.6821C41.9142 46.8974 41.8563 48.1246 41.8522 48.2397L42.8515 48.2759ZM41.894 49.1964C42.4072 49.1964 42.8293 48.7921 42.8514 48.2793L41.8523 48.2363C41.8533 48.214 41.8716 48.1964 41.894 48.1964V49.1964ZM40.9365 48.2793C40.9586 48.7921 41.3807 49.1964 41.894 49.1964V48.1964C41.9163 48.1964 41.9346 48.214 41.9356 48.2363L40.9365 48.2793ZM37.6948 44.1484C39.1751 44.1484 39.9685 45.0555 40.42 46.0836C40.8779 47.1264 40.9331 48.2039 40.9366 48.2804L41.9356 48.2352C41.9305 48.1238 41.8692 46.8966 41.3357 45.6816C40.7957 44.452 39.7228 43.1484 37.6948 43.1484V44.1484ZM36.7373 43.1909C36.7373 43.7197 37.166 44.1484 37.6948 44.1484V43.1484C37.7183 43.1484 37.7373 43.1674 37.7373 43.1909H36.7373ZM37.6948 42.2334C37.166 42.2334 36.7373 42.6621 36.7373 43.1909H37.7373C37.7373 43.2144 37.7183 43.2334 37.6948 43.2334V42.2334ZM40.9364 38.1043C40.9338 38.1759 40.8793 39.2543 40.4213 40.2977C39.9698 41.326 39.176 42.2334 37.6948 42.2334V43.2334C39.7236 43.2334 40.797 41.9297 41.337 40.6996C41.8704 39.4846 41.9315 38.2574 41.9357 38.1403L40.9364 38.1043ZM41.894 37.1837C41.3807 37.1837 40.9586 37.588 40.9365 38.1007L41.9356 38.1438C41.9346 38.1661 41.9163 38.1837 41.894 38.1837V37.1837ZM42.8514 38.1007C42.8293 37.588 42.4072 37.1837 41.894 37.1837V38.1837C41.8716 38.1837 41.8533 38.1661 41.8523 38.1438L42.8514 38.1007ZM46.0931 42.2334C44.6129 42.2334 43.8194 41.3263 43.3679 40.298C42.91 39.255 42.8548 38.177 42.8513 38.0999L41.8523 38.1447C41.8574 38.2572 41.9187 39.4847 42.4522 40.7C42.9922 41.9298 44.0651 43.2334 46.0931 43.2334V42.2334ZM42.3647 45.7881C41.9381 44.6255 41.1714 43.4173 39.8945 42.748L39.4303 43.6337C40.4083 44.1464 41.0481 45.103 41.4259 46.1326L42.3647 45.7881ZM42.3953 45.9637V45.9603H41.3953V45.9637H42.3953ZM43.8961 42.7484C42.6162 43.4221 41.8533 44.6292 41.426 45.7911L42.3645 46.1363C42.7433 45.1062 43.38 44.1501 44.3619 43.6334L43.8961 42.7484ZM41.426 40.5942C41.8533 41.7551 42.6189 42.9644 43.897 43.6338L44.361 42.748C43.3824 42.2354 42.7433 41.2782 42.3645 40.2488L41.426 40.5942ZM39.8953 43.6334C41.1748 42.9599 41.9379 41.7557 42.3646 40.5938L41.4259 40.2491C41.0482 41.2777 40.4117 42.2315 39.4295 42.7484L39.8953 43.6334Z" fill="#1EA7FF"/>
<path fill-rule="evenodd" clip-rule="evenodd" d="M50.2162 45.9008C50.2213 46.0368 50.3854 49.228 52.8878 49.228H52.8887C53.1339 49.2386 53.3272 49.4404 53.3272 49.6859C53.3272 49.9313 53.1339 50.1332 52.8887 50.1438C50.3752 50.1438 50.2221 53.3324 50.217 53.4684C50.2074 53.7137 50.0059 53.9078 49.7604 53.908C49.5149 53.9082 49.313 53.7146 49.303 53.4693C49.2979 53.3332 49.1338 50.1438 46.6322 50.1438C46.387 50.1332 46.1936 49.9313 46.1936 49.6859C46.1936 49.4404 46.387 49.2386 46.6322 49.228C49.144 49.228 49.2979 46.0377 49.303 45.9016C49.313 45.6568 49.5137 45.4632 49.7587 45.462C50.0037 45.4631 50.2049 45.6561 50.2162 45.9008ZM48.3336 49.688C49.0079 50.1038 49.4645 50.7585 49.7587 51.4388C50.0529 50.7526 50.5104 50.1013 51.1846 49.688C50.5104 49.2722 50.0529 48.6175 49.7587 47.9373C49.4645 48.6217 49.0079 49.2722 48.3336 49.688Z" fill="#1EA7FF"/>
<path d="M50.2162 45.9008L50.7158 45.8821L50.7156 45.8777L50.2162 45.9008ZM52.8887 49.228L52.9102 48.7285L52.8994 48.728H52.8887V49.228ZM52.8887 50.1438V50.6438H52.8994L52.9102 50.6433L52.8887 50.1438ZM50.217 53.4684L50.7166 53.4879L50.7167 53.4872L50.217 53.4684ZM49.7604 53.908L49.7608 54.408H49.761L49.7604 53.908ZM49.303 53.4693L48.8033 53.488L48.8034 53.4897L49.303 53.4693ZM46.6322 50.1438L46.6106 50.6433L46.6214 50.6438H46.6322V50.1438ZM46.6322 49.228V48.728H46.6214L46.6106 48.7285L46.6322 49.228ZM49.303 45.9016L48.8034 45.8812L48.8033 45.8829L49.303 45.9016ZM49.7587 45.462L49.761 44.962L49.7564 44.962L49.7587 45.462ZM49.7587 51.4388L49.2998 51.6373L49.7607 52.703L50.2182 51.6358L49.7587 51.4388ZM48.3336 49.688L48.0712 49.2624L47.381 49.688L48.0712 50.1136L48.3336 49.688ZM51.1846 49.688L51.4459 50.1143L52.1394 49.6893L51.4471 49.2624L51.1846 49.688ZM49.7587 47.9373L50.2176 47.7388L49.7573 46.6744L49.2993 47.7398L49.7587 47.9373ZM52.8878 48.728C51.9136 48.728 51.3857 48.1324 51.074 47.416C50.7566 46.6863 50.7176 45.9281 50.7158 45.8821L49.7165 45.9195C49.7199 46.0096 49.7655 46.915 50.157 47.8149C50.5543 48.728 51.3596 49.728 52.8878 49.728V48.728ZM52.8887 48.728H52.8878V49.728H52.8887V48.728ZM53.8272 49.6859C53.8272 49.1727 53.4229 48.7506 52.9102 48.7285L52.8671 49.7275C52.8448 49.7266 52.8272 49.7082 52.8272 49.6859H53.8272ZM52.9102 50.6433C53.4229 50.6212 53.8272 50.1991 53.8272 49.6859H52.8272C52.8272 49.6636 52.8448 49.6452 52.8671 49.6442L52.9102 50.6433ZM50.7167 53.4872C50.7185 53.4393 50.7551 52.6824 51.0709 51.954C51.3807 51.2398 51.9081 50.6438 52.8887 50.6438V49.6438C51.3558 49.6438 50.5499 50.642 50.1535 51.5561C49.7632 52.4561 49.7207 53.3615 49.7174 53.4497L50.7167 53.4872ZM49.761 54.408C50.2748 54.4075 50.6966 54.0014 50.7166 53.4879L49.7174 53.4489C49.7183 53.4261 49.737 53.4081 49.7599 53.408L49.761 54.408ZM48.8034 53.4897C48.8244 54.0032 49.247 54.4085 49.7608 54.408L49.76 53.408C49.7828 53.408 49.8016 53.426 49.8025 53.4488L48.8034 53.4897ZM46.6322 50.6438C47.606 50.6438 48.1337 51.239 48.4453 51.955C48.7626 52.6843 48.8016 53.442 48.8033 53.488L49.8026 53.4505C49.7992 53.3605 49.7536 52.4555 49.3622 51.556C48.9651 50.6433 48.1599 49.6438 46.6322 49.6438V50.6438ZM45.6936 49.6859C45.6936 50.1991 46.0979 50.6212 46.6106 50.6433L46.6537 49.6442C46.676 49.6452 46.6936 49.6636 46.6936 49.6859H45.6936ZM46.6106 48.7285C46.0979 48.7506 45.6936 49.1727 45.6936 49.6859H46.6936C46.6936 49.7082 46.676 49.7266 46.6537 49.7275L46.6106 48.7285ZM48.8033 45.8829C48.8015 45.9307 48.7647 46.6881 48.4488 47.417C48.1389 48.1319 47.6116 48.728 46.6322 48.728V49.728C48.1645 49.728 48.97 48.7289 49.3663 47.8147C49.7566 46.9144 49.7993 46.0086 49.8026 45.9204L48.8033 45.8829ZM49.7564 44.962C49.2441 44.9645 48.8243 45.3694 48.8034 45.8812L49.8025 45.922C49.8016 45.9443 49.7834 45.9619 49.7611 45.962L49.7564 44.962ZM50.7156 45.8777C50.692 45.3669 50.2722 44.9643 49.761 44.962L49.7565 45.962C49.7352 45.9619 49.7177 45.9452 49.7167 45.9239L50.7156 45.8777ZM50.2176 51.2403C49.8975 50.5002 49.3846 49.7487 48.596 49.2624L48.0712 50.1136C48.6312 50.4589 49.0315 51.0169 49.2998 51.6373L50.2176 51.2403ZM50.9234 49.2617C50.1344 49.7453 49.6199 50.4937 49.2991 51.2417L50.2182 51.6358C50.4859 51.0115 50.8863 50.4573 51.4459 50.1143L50.9234 49.2617ZM49.2998 48.1357C49.62 48.8762 50.1339 49.6275 50.9222 50.1136L51.4471 49.2624C50.8869 48.917 50.4858 48.3588 50.2176 47.7388L49.2998 48.1357ZM48.596 50.1136C49.3839 49.6277 49.8973 48.881 50.2181 48.1347L49.2993 47.7398C49.0317 48.3625 48.6318 48.9167 48.0712 49.2624L48.596 50.1136Z" fill="#1EA7FF"/>
<path fill-rule="evenodd" clip-rule="evenodd" d="M28.8432 25.4945C28.8381 25.3712 28.6876 22.4334 26.3918 22.4334C26.1391 22.4334 25.9343 22.2286 25.9343 21.976C25.9343 21.7233 26.1391 21.5185 26.3918 21.5185C28.6867 21.5185 28.8381 18.5825 28.8432 18.4575C28.8432 18.2048 29.048 18 29.3007 18C29.5533 18 29.7581 18.2048 29.7581 18.4575C29.7632 18.5825 29.9146 21.5185 32.2104 21.5185C32.463 21.5185 32.6678 21.7233 32.6678 21.976C32.6678 22.2286 32.463 22.4334 32.2104 22.4334C29.9146 22.4334 29.7632 25.3695 29.7581 25.4945C29.7434 25.7363 29.5429 25.9249 29.3007 25.9249C29.0584 25.9249 28.8579 25.7363 28.8432 25.4945ZM30.5633 21.976C29.9783 21.5993 29.5685 21.0296 29.2981 20.4285C29.0277 21.0296 28.6213 21.5993 28.0337 21.976C28.6179 22.3535 29.0277 22.9224 29.2981 23.5252C29.5685 22.9224 29.9758 22.3535 30.5633 21.976Z" fill="#1EA7FF"/>
<path d="M28.8432 25.4945L28.3435 25.5152L28.3441 25.525L28.8432 25.4945ZM28.8432 18.4575L29.3428 18.4779L29.3432 18.4677V18.4575H28.8432ZM29.7581 18.4575L29.2581 18.4575V18.4677L29.2585 18.4779L29.7581 18.4575ZM29.7581 25.4945L30.2573 25.525L30.2577 25.5149L29.7581 25.4945ZM29.2981 20.4285L29.7541 20.2233L29.2981 19.2095L28.8421 20.2233L29.2981 20.4285ZM30.5633 21.976L30.8336 22.3966L31.4876 21.9764L30.834 21.5556L30.5633 21.976ZM28.0337 21.976L27.7638 21.5551L27.1099 21.9743L27.7623 22.3959L28.0337 21.976ZM29.2981 23.5252L28.8419 23.7299L29.2981 24.747L29.7543 23.7299L29.2981 23.5252ZM26.3918 22.9334C27.2617 22.9334 27.7349 23.4645 28.0178 24.1167C28.3061 24.7815 28.3419 25.4733 28.3436 25.5152L29.3428 25.4738C29.3394 25.3925 29.2973 24.5537 28.9352 23.7188C28.5676 22.8713 27.8176 21.9334 26.3918 21.9334V22.9334ZM25.4343 21.976C25.4343 22.5048 25.863 22.9334 26.3918 22.9334V21.9334C26.4153 21.9334 26.4343 21.9525 26.4343 21.976H25.4343ZM26.3918 21.0185C25.863 21.0185 25.4343 21.4472 25.4343 21.976H26.4343C26.4343 21.9995 26.4153 22.0185 26.3918 22.0185V21.0185ZM28.3436 18.4371C28.3419 18.4794 28.306 19.1712 28.0175 19.8358C27.7345 20.4878 27.2614 21.0185 26.3918 21.0185V22.0185C27.8171 22.0185 28.5671 21.0812 28.9348 20.2339C29.2971 19.3993 29.3394 18.5605 29.3428 18.4779L28.3436 18.4371ZM29.3007 17.5C28.7719 17.5 28.3432 17.9287 28.3432 18.4575H29.3432C29.3432 18.481 29.3241 18.5 29.3007 18.5V17.5ZM30.2581 18.4575C30.2581 17.9287 29.8294 17.5 29.3007 17.5V18.5C29.2772 18.5 29.2581 18.481 29.2581 18.4575L30.2581 18.4575ZM32.2104 21.0185C31.3402 21.0185 30.8669 20.4877 30.5839 19.8358C30.2953 19.1711 30.2594 18.4794 30.2577 18.4371L29.2585 18.4779C29.2619 18.5605 29.3042 19.3993 29.6666 20.234C30.0345 21.0813 30.7847 22.0185 32.2104 22.0185V21.0185ZM33.1678 21.976C33.1678 21.4472 32.7392 21.0185 32.2104 21.0185V22.0185C32.1869 22.0185 32.1678 21.9995 32.1678 21.976H33.1678ZM32.2104 22.9334C32.7392 22.9334 33.1678 22.5048 33.1678 21.976H32.1678C32.1678 21.9525 32.1869 21.9334 32.2104 21.9334V22.9334ZM30.2577 25.5149C30.2594 25.4726 30.2953 24.7808 30.5839 24.1162C30.8669 23.4643 31.3402 22.9334 32.2104 22.9334V21.9334C30.7847 21.9334 30.0345 22.8706 29.6666 23.718C29.3042 24.5527 29.2619 25.3915 29.2585 25.4741L30.2577 25.5149ZM29.3007 26.4249C29.8073 26.4249 30.2263 26.0306 30.2572 25.525L29.259 25.4641C29.2604 25.4421 29.2786 25.4249 29.3007 25.4249V26.4249ZM28.3441 25.525C28.375 26.0306 28.794 26.4249 29.3007 26.4249V25.4249C29.3227 25.4249 29.3409 25.4421 29.3423 25.4641L28.3441 25.525ZM28.8421 20.6336C29.1395 21.2948 29.6039 21.9529 30.2926 22.3964L30.834 21.5556C30.3528 21.2457 29.9974 20.7644 29.7541 20.2233L28.8421 20.6336ZM28.3036 22.3969C28.9964 21.9527 29.4572 21.2935 29.7541 20.6336L28.8421 20.2233C28.5982 20.7657 28.2461 21.2459 27.7638 21.5551L28.3036 22.3969ZM29.7543 23.3206C29.4567 22.657 28.9924 22.0002 28.3051 21.5561L27.7623 22.3959C28.2434 22.7068 28.5987 23.1877 28.8419 23.7299L29.7543 23.3206ZM30.293 21.5553C29.6009 22.0001 29.1391 22.6579 28.8419 23.3206L29.7543 23.7299C29.9979 23.1868 30.3506 22.707 30.8336 22.3966L30.293 21.5553Z" fill="#1EA7FF"/>
</svg>
