<svg width="41" height="40" viewBox="0 0 41 40" fill="none" xmlns="http://www.w3.org/2000/svg">
<g id="Group 11">
<g id="Group 7">
<path id="Subtract" fill-rule="evenodd" clip-rule="evenodd" d="M20.5 40C31.5457 40 40.5 31.0457 40.5 20C40.5 8.9543 31.5457 0 20.5 0C9.4543 0 0.5 8.9543 0.5 20C0.5 31.0457 9.4543 40 20.5 40ZM20.5 37.7778C30.3184 37.7778 38.2778 29.8184 38.2778 20C38.2778 10.1816 30.3184 2.22222 20.5 2.22222C10.6816 2.22222 2.72222 10.1816 2.72222 20C2.72222 29.8184 10.6816 37.7778 20.5 37.7778Z" fill="#E8F2DE"/>
<path id="Subtract_2" fill-rule="evenodd" clip-rule="evenodd" d="M38.9776 12.3463C39.9827 14.7728 40.5 17.3736 40.5 20H38.2778C38.2778 10.1816 30.3184 2.22222 20.5 2.22222V0C23.1264 0 25.7272 0.517315 28.1537 1.52241C30.5802 2.5275 32.785 4.00069 34.6421 5.85786C36.4993 7.71504 37.9725 9.91982 38.9776 12.3463Z" fill="#8BBF5A"/>
</g>
</g>
</svg>
