<svg width="20" height="21" viewBox="0 0 20 21" fill="none" xmlns="http://www.w3.org/2000/svg">
<path fill-rule="evenodd" clip-rule="evenodd" d="M9.81407 11.8847C9.25657 11.8847 8.70073 11.7005 8.23573 11.3322L4.49823 8.31883C4.22907 8.10217 4.1874 7.708 4.40323 7.43967C4.62073 7.17217 5.01407 7.12967 5.2824 7.3455L9.01657 10.3555C9.48573 10.7272 10.1466 10.7272 10.6191 10.3522L14.3157 7.34717C14.5841 7.128 14.9774 7.16967 15.1957 7.438C15.4132 7.7055 15.3724 8.09883 15.1049 8.31717L11.4016 11.3272C10.9332 11.6988 10.3732 11.8847 9.81407 11.8847Z" fill="#9E9E9E"/>
<mask id="mask0_251_58" style="mask-type:luminance" maskUnits="userSpaceOnUse" x="0" y="2" width="19" height="17">
<path fill-rule="evenodd" clip-rule="evenodd" d="M0.833374 2.33067H18.75V18.5807H0.833374V2.33067Z" fill="white"/>
</mask>
<g mask="url(#mask0_251_58)">
<path fill-rule="evenodd" clip-rule="evenodd" d="M5.69909 17.3307H13.8824C13.8841 17.329 13.8908 17.3307 13.8958 17.3307C14.8466 17.3307 15.6899 16.9907 16.3366 16.3448C17.0874 15.5973 17.4999 14.5232 17.4999 13.3207V7.59733C17.4999 5.26983 15.9783 3.58067 13.8824 3.58067H5.70075C3.60492 3.58067 2.08325 5.26983 2.08325 7.59733V13.3207C2.08325 14.5232 2.49659 15.5973 3.24659 16.3448C3.89325 16.9907 4.73742 17.3307 5.68742 17.3307H5.69909ZM5.68492 18.5807C4.39909 18.5807 3.25075 18.114 2.36409 17.2307C1.37659 16.2457 0.833252 14.8573 0.833252 13.3207V7.59733C0.833252 4.59483 2.92575 2.33067 5.70075 2.33067H13.8824C16.6574 2.33067 18.7499 4.59483 18.7499 7.59733V13.3207C18.7499 14.8573 18.2066 16.2457 17.2191 17.2307C16.3333 18.1132 15.1841 18.5807 13.8958 18.5807H13.8824H5.70075H5.68492Z" fill="#9E9E9E"/>
</g>
</svg>
