<svg width="19" height="17" viewBox="0 0 19 17" fill="none" xmlns="http://www.w3.org/2000/svg">
<g id="Message">
<path id="Fill 1" fill-rule="evenodd" clip-rule="evenodd" d="M9.81407 9.88467C9.25657 9.88467 8.70073 9.7005 8.23573 9.33217L4.49823 6.31883C4.22907 6.10217 4.1874 5.708 4.40323 5.43967C4.62073 5.17217 5.01407 5.12967 5.2824 5.3455L9.01657 8.3555C9.48573 8.72717 10.1466 8.72717 10.6191 8.35217L14.3157 5.34717C14.5841 5.128 14.9774 5.16967 15.1957 5.438C15.4132 5.7055 15.3724 6.09883 15.1049 6.31717L11.4016 9.32717C10.9332 9.69883 10.3732 9.88467 9.81407 9.88467Z" fill="#9E9E9E"/>
<g id="Group 5">
<mask id="mask0_240_59" style="mask-type:luminance" maskUnits="userSpaceOnUse" x="0" y="0" width="19" height="17">
<path id="Clip 4" fill-rule="evenodd" clip-rule="evenodd" d="M0.833374 0.330666H18.75V16.5807H0.833374V0.330666Z" fill="white"/>
</mask>
<g mask="url(#mask0_240_59)">
<path id="Fill 3" fill-rule="evenodd" clip-rule="evenodd" d="M5.69909 15.3307H13.8824C13.8841 15.329 13.8908 15.3307 13.8958 15.3307C14.8466 15.3307 15.6899 14.9907 16.3366 14.3448C17.0874 13.5973 17.4999 12.5232 17.4999 11.3207V5.59733C17.4999 3.26983 15.9783 1.58067 13.8824 1.58067H5.70075C3.60492 1.58067 2.08325 3.26983 2.08325 5.59733V11.3207C2.08325 12.5232 2.49659 13.5973 3.24659 14.3448C3.89325 14.9907 4.73742 15.3307 5.68742 15.3307H5.69909ZM5.68492 16.5807C4.39909 16.5807 3.25075 16.114 2.36409 15.2307C1.37659 14.2457 0.833252 12.8573 0.833252 11.3207V5.59733C0.833252 2.59483 2.92575 0.330666 5.70075 0.330666H13.8824C16.6574 0.330666 18.7499 2.59483 18.7499 5.59733V11.3207C18.7499 12.8573 18.2066 14.2457 17.2191 15.2307C16.3333 16.1132 15.1841 16.5807 13.8958 16.5807H13.8824H5.70075H5.68492Z" fill="#9E9E9E"/>
</g>
</g>
</g>
</svg>
