<svg width="31" height="30" viewBox="0 0 31 30" fill="none" xmlns="http://www.w3.org/2000/svg">
<g id="Bold / Notes / Document Medicine">
<path id="Vector" fill-rule="evenodd" clip-rule="evenodd" d="M5.71447 3.96447C4.25 5.42893 4.25 7.78595 4.25 12.5V17.5C4.25 22.214 4.25 24.5711 5.71447 26.0355C7.17893 27.5 9.53595 27.5 14.25 27.5H16.75C21.464 27.5 23.8211 27.5 25.2855 26.0355C26.75 24.5711 26.75 22.214 26.75 17.5V12.5C26.75 7.78595 26.75 5.42893 25.2855 3.96447C23.8211 2.5 21.464 2.5 16.75 2.5H14.25C9.53595 2.5 7.17893 2.5 5.71447 3.96447ZM16.4375 7.5C16.4375 6.98223 16.0177 6.5625 15.5 6.5625C14.9822 6.5625 14.5625 6.98223 14.5625 7.5V9.0625H13C12.4822 9.0625 12.0625 9.48223 12.0625 10C12.0625 10.5178 12.4822 10.9375 13 10.9375H14.5625L14.5625 12.5C14.5625 13.0178 14.9822 13.4375 15.5 13.4375C16.0177 13.4375 16.4375 13.0178 16.4375 12.5L16.4375 10.9375L18 10.9375C18.5177 10.9375 18.9375 10.5178 18.9375 10C18.9375 9.48223 18.5177 9.0625 18 9.0625H16.4375V7.5ZM10.5 16.5625C9.98223 16.5625 9.5625 16.9822 9.5625 17.5C9.5625 18.0178 9.98223 18.4375 10.5 18.4375H20.5C21.0178 18.4375 21.4375 18.0178 21.4375 17.5C21.4375 16.9822 21.0178 16.5625 20.5 16.5625H10.5ZM11.75 21.5625C11.2322 21.5625 10.8125 21.9822 10.8125 22.5C10.8125 23.0178 11.2322 23.4375 11.75 23.4375H19.25C19.7678 23.4375 20.1875 23.0178 20.1875 22.5C20.1875 21.9822 19.7678 21.5625 19.25 21.5625H11.75Z" fill="#F97216"/>
</g>
</svg>
