<svg width="31" height="30" viewBox="0 0 31 30" fill="none" xmlns="http://www.w3.org/2000/svg">
<g id="Bold / Business, Statistic / Chart Square">
<path id="Vector" fill-rule="evenodd" clip-rule="evenodd" d="M4.83058 4.33058C3 6.16117 3 9.10744 3 15C3 20.8926 3 23.8388 4.83058 25.6694C6.66117 27.5 9.60744 27.5 15.5 27.5C21.3926 27.5 24.3388 27.5 26.1694 25.6694C28 23.8388 28 20.8926 28 15C28 9.10744 28 6.16117 26.1694 4.33058C24.3388 2.5 21.3926 2.5 15.5 2.5C9.60744 2.5 6.66117 2.5 4.83058 4.33058ZM21.75 15.3125C22.2678 15.3125 22.6875 15.7322 22.6875 16.25V22.5C22.6875 23.0178 22.2678 23.4375 21.75 23.4375C21.2322 23.4375 20.8125 23.0178 20.8125 22.5V16.25C20.8125 15.7322 21.2322 15.3125 21.75 15.3125ZM16.4375 7.5C16.4375 6.98223 16.0178 6.5625 15.5 6.5625C14.9822 6.5625 14.5625 6.98223 14.5625 7.5V22.5C14.5625 23.0178 14.9822 23.4375 15.5 23.4375C16.0178 23.4375 16.4375 23.0178 16.4375 22.5V7.5ZM9.25 10.3125C9.76777 10.3125 10.1875 10.7322 10.1875 11.25V22.5C10.1875 23.0178 9.76777 23.4375 9.25 23.4375C8.73223 23.4375 8.3125 23.0178 8.3125 22.5V11.25C8.3125 10.7322 8.73223 10.3125 9.25 10.3125Z" fill="#8BBF5A"/>
</g>
</svg>
