<svg width="25" height="26" viewBox="0 0 25 26" fill="none" xmlns="http://www.w3.org/2000/svg">
<g id="Time Circle">
<path id="Time Circle_2" fill-rule="evenodd" clip-rule="evenodd" d="M12.5 25.5001C5.6 25.5001 0 19.9126 0 13.0001C0 6.10012 5.6 0.500122 12.5 0.500122C19.4125 0.500122 25 6.10012 25 13.0001C25 19.9126 19.4125 25.5001 12.5 25.5001ZM16.4875 17.6376C16.6375 17.7251 16.8 17.7751 16.975 17.7751C17.2875 17.7751 17.6 17.6126 17.775 17.3126C18.0375 16.8751 17.9 16.3001 17.45 16.0251L13 13.3751V7.60012C13 7.07512 12.575 6.66262 12.0625 6.66262C11.55 6.66262 11.125 7.07512 11.125 7.60012V13.9126C11.125 14.2376 11.3 14.5376 11.5875 14.7126L16.4875 17.6376Z" fill="#FF6C64"/>
</g>
</svg>
