<svg width="30" height="30" viewBox="0 0 30 30" fill="none" xmlns="http://www.w3.org/2000/svg">
<g id="Bold / Money / Card Recive">
<g id="Vector">
<path fill-rule="evenodd" clip-rule="evenodd" d="M23.0871 25.6629C23.4532 26.029 24.0468 26.029 24.4129 25.6629L26.9129 23.1629C27.279 22.7968 27.279 22.2032 26.9129 21.8371C26.5468 21.471 25.9532 21.471 25.5871 21.8371L24.6875 22.7367V17.5C24.6875 16.9822 24.2678 16.5625 23.75 16.5625C23.2322 16.5625 22.8125 16.9822 22.8125 17.5V22.7367L21.9129 21.8371C21.5468 21.471 20.9532 21.471 20.5871 21.8371C20.221 22.2032 20.221 22.7968 20.5871 23.1629L23.0871 25.6629Z" fill="#1C274C"/>
<path d="M12.5 5H17.5C22.214 5 24.5711 5 26.0355 6.46447C27.09 7.51889 27.3852 9.03603 27.4679 11.5625H2.53215C2.61481 9.03603 2.91004 7.51889 3.96447 6.46447C5.42893 5 7.78595 5 12.5 5Z" fill="#3685F2"/>
<path fill-rule="evenodd" clip-rule="evenodd" d="M12.5 25H17.5C18.3244 25 19.0767 25 19.7647 24.9922L19.2613 24.4887C18.1629 23.3904 18.1629 21.6096 19.2613 20.5113C19.7308 20.0417 20.3251 19.7729 20.9375 19.7048V17.5C20.9375 15.9467 22.1967 14.6875 23.75 14.6875C25.3033 14.6875 26.5625 15.9467 26.5625 17.5V19.7048C26.8423 19.7359 27.1184 19.8089 27.3804 19.9239C27.5 18.6464 27.5 17.045 27.5 15C27.5 14.4476 27.5 13.9275 27.4976 13.4375H2.50236C2.5 13.9275 2.5 14.4476 2.5 15C2.5 19.714 2.5 22.0711 3.96447 23.5355C5.42893 25 7.78595 25 12.5 25ZM7.5 19.0625C6.98223 19.0625 6.5625 19.4822 6.5625 20C6.5625 20.5178 6.98223 20.9375 7.5 20.9375H12.5C13.0178 20.9375 13.4375 20.5178 13.4375 20C13.4375 19.4822 13.0178 19.0625 12.5 19.0625H7.5ZM15.625 19.0625C15.1072 19.0625 14.6875 19.4822 14.6875 20C14.6875 20.5178 15.1072 20.9375 15.625 20.9375H17.5C18.0178 20.9375 18.4375 20.5178 18.4375 20C18.4375 19.4822 18.0178 19.0625 17.5 19.0625H15.625Z" fill="#3685F2"/>
</g>
</g>
</svg>
