<svg width="31" height="30" viewBox="0 0 31 30" fill="none" xmlns="http://www.w3.org/2000/svg">
<g id="Bold / Time / Alarm Sleep">
<g id="Vector">
<path fill-rule="evenodd" clip-rule="evenodd" d="M10.6699 2.00313C10.9443 2.44219 10.8108 3.02058 10.3718 3.295L5.37175 6.42C4.93269 6.69441 4.3543 6.56094 4.07988 6.12187C3.80547 5.68281 3.93894 5.10441 4.37801 4.83L9.37804 1.705C9.81711 1.43059 10.3955 1.56406 10.6699 2.00313ZM20.3299 2.00313C20.6043 1.56406 21.1827 1.43059 21.6218 1.705L26.6218 4.83C27.0608 5.10442 27.1943 5.68281 26.9199 6.12187C26.6455 6.56094 26.0671 6.69441 25.628 6.42L20.628 3.295C20.1889 3.02058 20.0555 2.44219 20.3299 2.00313Z" fill="#784DFF"/>
<path fill-rule="evenodd" clip-rule="evenodd" d="M15.4999 27.5C21.7131 27.5 26.7499 22.4632 26.7499 16.25C26.7499 10.0368 21.7131 5 15.4999 5C9.28668 5 4.24988 10.0368 4.24988 16.25C4.24988 22.4632 9.28668 27.5 15.4999 27.5ZM11.7499 13.4375C11.2321 13.4375 10.8124 13.0178 10.8124 12.5C10.8124 11.9822 11.2321 11.5625 11.7499 11.5625H19.2499C19.6291 11.5625 19.9709 11.7909 20.116 12.1412C20.2611 12.4916 20.1809 12.8948 19.9128 13.1629L14.0132 19.0625H19.2499C19.7676 19.0625 20.1874 19.4822 20.1874 20C20.1874 20.5178 19.7676 20.9375 19.2499 20.9375H11.7499C11.3707 20.9375 11.0289 20.7091 10.8837 20.3588C10.7386 20.0084 10.8188 19.6052 11.087 19.3371L16.9866 13.4375H11.7499Z" fill="#784DFF"/>
</g>
</g>
</svg>
